<svg id="Capa_1_copia_2" data-name="Capa 1 copia 2" xmlns="http://www.w3.org/2000/svg" viewBox="0 0 1080 1080"><defs><style>.cls-1{fill:#e3c02e;}.cls-2{fill:#ff2a2a;}.cls-3{fill:red;}</style></defs><title>CPV (LOGO)</title><circle class="cls-1" cx="540" cy="540" r="529.68" transform="translate(-223.67 540) rotate(-45)"/><path d="M317.23,274.21q3.07,3.1,3.08,9v23.65q0,5.88-3.08,9t-9,3.12H297.89V271.1h10.39Q314.16,271.1,317.23,274.21Zm-12.1,3.59v34.45H308a4.75,4.75,0,0,0,3.83-1.43,6.72,6.72,0,0,0,1.23-4.44v-22.7a6.74,6.74,0,0,0-1.23-4.45A4.79,4.79,0,0,0,308,277.8Z"/><path d="M334.6,319h-7.25V271.1h7.25Z"/><path d="M358.87,273.22q2.81,2.8,2.8,7.93v1.23l-7,.68v-1.78a4.51,4.51,0,0,0-1-3.11,4.06,4.06,0,0,0-5.47,0,4.51,4.51,0,0,0-1,3.11v.62a8,8,0,0,0,1.3,4.27,23.77,23.77,0,0,0,4.79,5,33.4,33.4,0,0,1,7,7.66,14.56,14.56,0,0,1,2.05,7.65v2.4c0,3.41-1,6.06-2.9,7.93s-4.71,2.8-8.31,2.8-6.37-.93-8.31-2.8-2.9-4.52-2.9-7.93v-3.22l7-.68v3.42c0,3,1.37,4.51,4.1,4.51s4.1-1.51,4.1-4.51v-1.58a8,8,0,0,0-1.36-4.41,26.9,26.9,0,0,0-4.93-5.09,31.72,31.72,0,0,1-6.9-7.55,14.84,14.84,0,0,1-2-7.63v-1q0-5.13,2.8-7.93c1.87-1.87,4.53-2.81,8-2.81S357,271.35,358.87,273.22Z"/><path d="M386.35,277.94h-7.73v41h-7.24v-41h-7.73V271.1h22.7Z"/><path d="M407.34,319l-5.74-20.24h-3.35V319H391V271.1h10.46q5.88,0,9,3.11t3.08,9v3.42q0,7.59-5.13,10.53L415,319Zm-9.09-41.16V292h2.94a4.75,4.75,0,0,0,3.82-1.44,6.69,6.69,0,0,0,1.23-4.44v-2.46a6.74,6.74,0,0,0-1.23-4.45,4.78,4.78,0,0,0-3.82-1.43Z"/><path d="M427.51,319h-7.25V271.1h7.25Z"/><path d="M454,274.21q3,3.1,3,9v.89a13.42,13.42,0,0,1-1.3,6.42,7,7,0,0,1-4.1,3.35V294a8.12,8.12,0,0,1,4.89,3.73,15.25,15.25,0,0,1,1.54,7.48v1.64q0,5.88-3.08,9T446,319H435.3V271.1h10.12Q451,271.1,454,274.21Zm-11.46,3.59v13.06h2.26a4.63,4.63,0,0,0,3.76-1.4,6.84,6.84,0,0,0,1.16-4.41v-1.58a6.84,6.84,0,0,0-1.09-4.3,4.18,4.18,0,0,0-3.49-1.37Zm0,19.76v14.69h3.15a4.77,4.77,0,0,0,3.83-1.43,6.72,6.72,0,0,0,1.23-4.44v-2.67a7.06,7.06,0,0,0-1.27-4.68,5.18,5.18,0,0,0-4.13-1.47Z"/><path d="M485.82,308.22q0,5.53-3,8.48t-8.31,2.94c-3.46,0-6.19-1-8.17-2.94s-3-4.79-3-8.48V271.1h7V308q0,4.78,4.1,4.78c2.74,0,4.1-1.59,4.1-4.78V271.1h7.25Z"/><path d="M512.76,277.94H505v41h-7.25v-41h-7.72V271.1h22.7Z"/><path d="M536.72,273.66q3.1,3.25,3.11,8.86v25q0,5.61-3.11,8.85t-8.58,3.25q-5.48,0-8.58-3.25c-2.08-2.16-3.11-5.11-3.11-8.85v-25c0-3.74,1-6.69,3.11-8.86s4.93-3.25,8.58-3.25A11.36,11.36,0,0,1,536.72,273.66Zm-11.9,4.86a6.36,6.36,0,0,0-1.13,4.06v24.89a6.39,6.39,0,0,0,1.13,4.07,4.64,4.64,0,0,0,6.64,0,6.39,6.39,0,0,0,1.12-4.07V282.58a6.36,6.36,0,0,0-1.12-4.06,4.61,4.61,0,0,0-6.64,0Z"/><path d="M563.21,319l-5.74-20.24h-3.35V319h-7.25V271.1h10.46q5.88,0,9,3.11t3.07,9v3.42q0,7.59-5.12,10.53L570.87,319Zm-9.09-41.16V292h2.94a4.77,4.77,0,0,0,3.83-1.44,6.69,6.69,0,0,0,1.23-4.44v-2.46a6.74,6.74,0,0,0-1.23-4.45,4.8,4.8,0,0,0-3.83-1.43Z"/><path d="M610.59,319H603.2l-1.57-10.88h-8L592.06,319h-7.25l8.28-47.86h9.23Zm-13.06-37.61-2.94,20.17h6.08l-2.94-20.17Z"/><path d="M623,312.12h12.1V319H615.78V271.1H623Z"/><path d="M647,312.12h12.1V319H639.78V271.1H647Z"/><path d="M695.77,277.8H683v13.54h10.25V298H683V319h-7.25V271.1h20Z"/><path d="M719.87,273.66q3.11,3.25,3.11,8.86v25q0,5.61-3.11,8.85t-8.58,3.25q-5.47,0-8.58-3.25t-3.11-8.85v-25q0-5.61,3.11-8.86c2.07-2.16,4.93-3.25,8.58-3.25A11.36,11.36,0,0,1,719.87,273.66ZM708,278.52a6.36,6.36,0,0,0-1.13,4.06v24.89a6.39,6.39,0,0,0,1.13,4.07,4.64,4.64,0,0,0,6.64,0,6.39,6.39,0,0,0,1.12-4.07V282.58a6.36,6.36,0,0,0-1.12-4.06,4.61,4.61,0,0,0-6.64,0Z"/><path d="M749.54,273.66q3.11,3.25,3.11,8.86v25q0,5.61-3.11,8.85c-2.07,2.17-4.94,3.25-8.58,3.25s-6.51-1.08-8.58-3.25-3.11-5.11-3.11-8.85v-25c0-3.74,1-6.69,3.11-8.86s4.93-3.25,8.58-3.25S747.47,271.5,749.54,273.66Zm-11.9,4.86a6.36,6.36,0,0,0-1.12,4.06v24.89a6.39,6.39,0,0,0,1.12,4.07,4.64,4.64,0,0,0,6.64,0,6.39,6.39,0,0,0,1.12-4.07V282.58a6.36,6.36,0,0,0-1.12-4.06,4.61,4.61,0,0,0-6.64,0Z"/><path d="M779,274.21q3.08,3.1,3.07,9v23.65q0,5.88-3.07,9t-9,3.12H759.69V271.1h10.39Q776,271.1,779,274.21Zm-12.1,3.59v34.45h2.87a4.77,4.77,0,0,0,3.83-1.43,6.72,6.72,0,0,0,1.23-4.44v-22.7a6.74,6.74,0,0,0-1.23-4.45,4.8,4.8,0,0,0-3.83-1.43Z"/><rect x="131.92" y="414.73" width="86.73" height="6.61"/><rect x="131.92" y="470.4" width="86.73" height="6.61"/><path d="M145.61,432.38a8.45,8.45,0,0,1,2.11,6.17v16.24a8.44,8.44,0,0,1-2.11,6.17,8.3,8.3,0,0,1-6.15,2.13h-7.13V430.25h7.13A8.3,8.3,0,0,1,145.61,432.38Zm-8.31,2.47V458.5h2a3.28,3.28,0,0,0,2.63-1,4.63,4.63,0,0,0,.84-3.05V438.88a4.65,4.65,0,0,0-.84-3.05,3.28,3.28,0,0,0-2.63-1Z"/><path d="M165.64,434.85h-9v9.29h7.27v4.6h-7.27v9.76h9v4.59h-14V430.25h14Z"/><path d="M180.23,431.7a7.36,7.36,0,0,1,1.93,5.45V438l-4.79.47v-1.22a3.1,3.1,0,0,0-.66-2.14,2.8,2.8,0,0,0-3.75,0,3.1,3.1,0,0,0-.66,2.14v.42a5.43,5.43,0,0,0,.9,2.93,15.78,15.78,0,0,0,3.28,3.45,22.86,22.86,0,0,1,4.83,5.26,10,10,0,0,1,1.41,5.25v1.65a7.2,7.2,0,0,1-2,5.44,9.44,9.44,0,0,1-11.41,0,7.2,7.2,0,0,1-2-5.44V454l4.79-.47v2.35c0,2.06.93,3.1,2.81,3.1s2.82-1,2.82-3.1v-1.08a5.51,5.51,0,0,0-.94-3,18.11,18.11,0,0,0-3.38-3.49,21.86,21.86,0,0,1-4.74-5.19,10.12,10.12,0,0,1-1.36-5.23v-.7a7.78,7.78,0,0,1,12.9-5.45Z"/><path d="M198.11,432.38a8.41,8.41,0,0,1,2.11,6.17v16.24a8.39,8.39,0,0,1-2.11,6.17,8.3,8.3,0,0,1-6.15,2.13h-7.13V430.25H192A8.3,8.3,0,0,1,198.11,432.38Zm-8.3,2.47V458.5h2a3.26,3.26,0,0,0,2.62-1,4.57,4.57,0,0,0,.85-3.05V438.88a4.59,4.59,0,0,0-.85-3.05,3.25,3.25,0,0,0-2.62-1Z"/><path d="M218.15,434.85h-9v9.29h7.27v4.6h-7.27v9.76h9v4.59h-14V430.25h14Z"/><rect x="861.35" y="414.73" width="86.73" height="6.61"/><rect x="861.35" y="470.4" width="86.73" height="6.61"/><path d="M883.75,431.75a7.37,7.37,0,0,1,2,5.54v1.22a14,14,0,0,1-.89,4.85,38,38,0,0,1-3.19,6.17l-5.54,8.87h9.62v4.69h-15.3v-4.22L877.84,447a20.79,20.79,0,0,0,2.32-4.65,13.12,13.12,0,0,0,.64-4v-.66c0-2.19-.93-3.28-2.77-3.28a2.4,2.4,0,0,0-2.09.94,5,5,0,0,0-.68,2.95v1.64l-4.79-.23v-2.25a7,7,0,0,1,7.65-7.65A7.72,7.72,0,0,1,883.75,431.75Z"/><path d="M902.36,432a8.41,8.41,0,0,1,2.13,6.07v17.18a8.41,8.41,0,0,1-2.13,6.07,8.89,8.89,0,0,1-11.78,0,8.38,8.38,0,0,1-2.14-6.07V438.08a8.38,8.38,0,0,1,2.14-6.07,8.89,8.89,0,0,1,11.78,0Zm-8.17,3.33a4.39,4.39,0,0,0-.77,2.79v17.08a4.39,4.39,0,0,0,.77,2.79,2.77,2.77,0,0,0,2.28,1,2.74,2.74,0,0,0,2.27-1,4.33,4.33,0,0,0,.78-2.79V438.13a4.33,4.33,0,0,0-.78-2.79,2.73,2.73,0,0,0-2.27-1A2.77,2.77,0,0,0,894.19,435.34Z"/><path d="M918.61,463.09h-5V437.85h-6.85v-3.47a15.46,15.46,0,0,0,5.35-1.29,5.66,5.66,0,0,0,3-2.84h3.47Z"/><path d="M924.74,461.55a7.72,7.72,0,0,1-2-5.73v-1.45l4.78-.24v1.17a4.42,4.42,0,0,0,.71,2.77,2.62,2.62,0,0,0,2.2.9q3,0,3-3.38v-6.81h-.09a4.64,4.64,0,0,1-1.76,1.29,6.19,6.19,0,0,1-2.56.5,6,6,0,0,1-4.74-2.07,8.71,8.71,0,0,1-1.83-6v-4.46a8.42,8.42,0,0,1,2.14-6.07,7.74,7.74,0,0,1,5.89-2.23,7.62,7.62,0,0,1,5.79,2.23,8.38,8.38,0,0,1,2.14,6.07v17.55a7.92,7.92,0,0,1-2.09,5.82,9.11,9.11,0,0,1-11.54.1ZM932.62,445a4.38,4.38,0,0,0,.77-2.8v-4.08a4.33,4.33,0,0,0-.77-2.79,3.07,3.07,0,0,0-4.46,0,4.39,4.39,0,0,0-.77,2.79v4.08a4.45,4.45,0,0,0,.77,2.8,3.07,3.07,0,0,0,4.46,0Z"/><path d="M154.53,618.28q3.51,3.6,3.52,10v5.1l-8.26.41v-4.62q0-6.55-4.86-6.56a4.51,4.51,0,0,0-3.6,1.46,6.39,6.39,0,0,0-1.26,4.29v30.93a6.39,6.39,0,0,0,1.26,4.29,4.51,4.51,0,0,0,3.6,1.46q4.86,0,4.86-6.56v-6.32l8.26.41v6.8q0,6.39-3.52,10t-9.84,3.6q-6.24,0-9.72-3.56t-3.48-10V628.28q0-6.46,3.48-10t9.72-3.56Q151,614.68,154.53,618.28Z"/><path d="M187.92,623.42H172.38v16h12.54v7.94H172.38v16.84h15.54v7.93H163.8V615.49h24.12Z"/><path d="M221.6,672.16h-8.42L201.93,634.6h-.17v37.56h-8.09V615.49h9.55l10.12,33.76h.16V615.49h8.1Z"/><path d="M252.44,623.59H243.3v48.57h-8.59V623.59h-9.14v-8.1h26.87Z"/><path d="M275.76,672.16l-6.8-24h-4v24h-8.58V615.49H268.8q7,0,10.6,3.68T283,629.82v4q0,9-6.07,12.47l7.86,25.82ZM265,623.42v16.84h3.48a5.66,5.66,0,0,0,4.54-1.7q1.46-1.69,1.45-5.26v-2.91c0-2.38-.48-4.13-1.45-5.27a5.69,5.69,0,0,0-4.54-1.7Z"/><path d="M312.55,618.53q3.69,3.84,3.69,10.48v29.63q0,6.65-3.69,10.49T302.39,673q-6.47,0-10.16-3.84t-3.68-10.49V629q0-6.63,3.68-10.48t10.16-3.85Q308.87,614.68,312.55,618.53Zm-14.08,5.74a7.56,7.56,0,0,0-1.34,4.82v29.47a7.54,7.54,0,0,0,1.34,4.82,5.47,5.47,0,0,0,7.85,0,7.54,7.54,0,0,0,1.34-4.82V629.09a7.56,7.56,0,0,0-1.34-4.82,5.47,5.47,0,0,0-7.85,0Z"/><path d="M359.87,619.17q3.64,3.69,3.65,10.65v4.53c0,4.65-1.22,8.19-3.65,10.65s-6,3.68-10.6,3.68h-3.81v23.48h-8.58V615.49h12.39Q356.23,615.49,359.87,619.17Zm-14.41,4.25v17.33h3.48a5.69,5.69,0,0,0,4.54-1.7c1-1.13,1.45-2.89,1.45-5.26v-3.4c0-2.38-.48-4.13-1.45-5.27a5.69,5.69,0,0,0-4.54-1.7Z"/><path d="M387.64,672.16l-6.8-24h-4v24h-8.58V615.49h12.39q7,0,10.6,3.68t3.65,10.65v4q0,9-6.08,12.47l7.86,25.82Zm-10.77-48.74v16.84h3.48a5.64,5.64,0,0,0,4.54-1.7q1.46-1.69,1.46-5.26v-2.91c0-2.38-.49-4.13-1.46-5.27a5.68,5.68,0,0,0-4.54-1.7Z"/><path d="M424.44,618.53q3.68,3.84,3.68,10.48v29.63q0,6.65-3.68,10.49T414.28,673q-6.48,0-10.16-3.84t-3.69-10.49V629q0-6.63,3.69-10.48t10.16-3.85Q420.75,614.68,424.44,618.53Zm-14.09,5.74a7.56,7.56,0,0,0-1.34,4.82v29.47a7.54,7.54,0,0,0,1.34,4.82,5.47,5.47,0,0,0,7.85,0,7.54,7.54,0,0,0,1.34-4.82V629.09a7.56,7.56,0,0,0-1.34-4.82,5.47,5.47,0,0,0-7.85,0Z"/><path d="M457.83,619.17q3.65,3.69,3.64,10.65v28c0,4.65-1.21,8.19-3.64,10.65s-6,3.68-10.6,3.68H434.92V615.49h12.31Q454.19,615.49,457.83,619.17Zm-14.33,4.25v40.81h3.4a5.69,5.69,0,0,0,4.54-1.7q1.46-1.71,1.45-5.26V630.39c0-2.38-.48-4.13-1.45-5.27a5.69,5.69,0,0,0-4.54-1.7Z"/><path d="M494.34,659.45q0,6.56-3.52,10T481,673q-6.17,0-9.68-3.48t-3.52-10v-44h8.26v43.72c0,3.78,1.62,5.66,4.85,5.66s4.86-1.88,4.86-5.66V615.49h8.58Z"/><path d="M523.69,618.28q3.52,3.6,3.52,10v5.1l-8.26.41v-4.62q0-6.55-4.85-6.56a4.52,4.52,0,0,0-3.61,1.46,6.44,6.44,0,0,0-1.25,4.29v30.93a6.44,6.44,0,0,0,1.25,4.29A4.52,4.52,0,0,0,514.1,665q4.85,0,4.85-6.56v-6.32l8.26.41v6.8q0,6.39-3.52,10t-9.84,3.6q-6.23,0-9.71-3.56t-3.48-10V628.28q0-6.46,3.48-10t9.71-3.56Q520.17,614.68,523.69,618.28Z"/><path d="M555.26,618.28q3.53,3.6,3.52,10v5.1l-8.25.41v-4.62q0-6.55-4.86-6.56a4.48,4.48,0,0,0-3.6,1.46,6.39,6.39,0,0,0-1.26,4.29v30.93a6.39,6.39,0,0,0,1.26,4.29,4.48,4.48,0,0,0,3.6,1.46q4.86,0,4.86-6.56v-6.32l8.25.41v6.8q0,6.39-3.52,10t-9.83,3.6q-6.24,0-9.72-3.56t-3.48-10V628.28q0-6.46,3.48-10t9.72-3.56Q551.75,614.68,555.26,618.28Z"/><path d="M573.11,672.16h-8.58V615.49h8.58Z"/><path d="M603.92,618.53q3.68,3.84,3.68,10.48v29.63q0,6.65-3.68,10.49T593.76,673q-6.48,0-10.16-3.84t-3.69-10.49V629q0-6.63,3.69-10.48t10.16-3.85Q600.23,614.68,603.92,618.53Zm-14.09,5.74a7.56,7.56,0,0,0-1.34,4.82v29.47a7.54,7.54,0,0,0,1.34,4.82,5.47,5.47,0,0,0,7.85,0,7.54,7.54,0,0,0,1.34-4.82V629.09a7.56,7.56,0,0,0-1.34-4.82,5.47,5.47,0,0,0-7.85,0Zm6.11-12h-6.31l4.69-8.9H603Z"/><path d="M642.33,672.16h-8.42L622.66,634.6h-.16v37.56h-8.1V615.49H624l10.12,33.76h.17V615.49h8.09Z"/><path d="M680.62,672.16H669.53L660,615.49h8.74l6.4,43.23h.16l6.31-43.23h8.59Z"/><path d="M718.92,623.42H703.37v16h12.55v7.94H703.37v16.84h15.55v7.93H694.79V615.49h24.13Z"/><path d="M752.59,672.16h-8.41L732.92,634.6h-.16v37.56h-8.1V615.49h9.56l10.12,33.76h.16V615.49h8.09Z"/><path d="M784.41,623.42H768.87v16h12.55v7.94H768.87v16.84h15.54v7.93H760.28V615.49h24.13Z"/><path d="M812.18,622.61l-15.79,41.62h15.79v7.93h-25.1V665l15.79-41.62h-15v-7.93h24.29Z"/><path d="M843,659.45q0,6.56-3.52,10T829.67,673q-6.17,0-9.68-3.48t-3.52-10v-44h8.26v43.72c0,3.78,1.62,5.66,4.85,5.66s4.86-1.88,4.86-5.66V615.49H843Z"/><path d="M874.35,623.42H858.81v16h12.55v7.94H858.81v16.84h15.54v7.93H850.23V615.49h24.12Z"/><path d="M888.68,664.07H903v8.09H880.1V615.49h8.58Z"/><path d="M934.42,672.16h-8.74l-1.86-12.87h-9.48l-1.86,12.87H903.9l9.8-56.67h10.93ZM919,627.64l-3.48,23.88h7.2l-3.48-23.88Z"/><path d="M948.51,672.16h-9.07v-9.07h9.07Z"/><path d="M362.56,367.5q12.81,13.13,12.82,36.4v18.57L345.31,424V407.14q0-23.86-17.68-23.87-8.55,0-13.12,5.3t-4.57,15.63V516.8q0,10.32,4.57,15.62t13.12,5.3q17.69,0,17.68-23.87v-23l30.07,1.47v24.76q0,23.29-12.82,36.4t-35.82,13.12q-22.69,0-35.37-13T278.7,517.09V403.9q0-23.58,12.67-36.55t35.37-13Q349.74,354.38,362.56,367.5Z"/><path d="M427.85,563.66h-33v-33h33Z"/><path d="M590,370.74q13.26,13.41,13.27,38.76V426q0,25.35-13.27,38.76t-38.61,13.41H537.49v85.48H506.25V357.33h45.1Q576.7,357.33,590,370.74Zm-52.47,15.48V449.3h12.68q11.21,0,16.51-6.2T572,424V411.57q0-13-5.3-19.16t-16.51-6.19Z"/><path d="M627.1,563.66h-33v-33h33Z"/><path d="M766.52,563.66H726.14L691.36,357.33h31.83l23.29,157.4h.59l23-157.4H801.3Z"/><path d="M194.57,790.87a28.58,28.58,0,0,0-1.21,4.64c-.18.47-.58.56-1.18.28-1.73-.76-2.6-1.67-2.6-2.74a8.2,8.2,0,0,1,.24-1.45c.17-.81.33-1.61.49-2.4s.53-1.07,1-1.07a1.23,1.23,0,0,1,.52.14c2,.78,3,1.42,3,1.9A1.64,1.64,0,0,1,194.57,790.87Zm13.87-40.53q-6.62,11.37-11.79,29.54a3.21,3.21,0,0,0,.07,2.56.65.65,0,0,1,.11.31c0,.26-.18.39-.52.39a3.39,3.39,0,0,1-1.81-.77c-1-.74-1.52-1.42-1.52-2a6.67,6.67,0,0,1,.17-1.25,175,175,0,0,1,5.76-19,101.94,101.94,0,0,1,4.26-10.85c.67-1.25,1.29-1.87,1.84-1.87a5.92,5.92,0,0,1,1,.24c2.35.65,3.53,1.3,3.53,1.94C209.55,750,209.18,750.22,208.44,750.34Z"/><path d="M192.77,796.56a2.08,2.08,0,0,1-.85-.21c-1.95-.86-2.95-2-2.95-3.3a7.09,7.09,0,0,1,.26-1.59c.15-.79.32-1.59.48-2.38.37-1.3,1.06-1.56,1.57-1.56a1.68,1.68,0,0,1,.79.2c2.38.94,3.33,1.63,3.33,2.45a2.2,2.2,0,0,1-.27,1,27.38,27.38,0,0,0-1.17,4.51l0,.1a1.27,1.27,0,0,1-.7.74A1.34,1.34,0,0,1,192.77,796.56Zm-1.49-7.82c-.12,0-.27.25-.38.64-.15.73-.31,1.53-.47,2.34a6.59,6.59,0,0,0-.23,1.33c0,.8.75,1.53,2.23,2.18a.71.71,0,0,0,.36.1,25.52,25.52,0,0,1,1.22-4.7v0a1,1,0,0,0,.15-.43,7.92,7.92,0,0,0-2.6-1.33A.75.75,0,0,0,191.28,788.74Zm5-5a3.9,3.9,0,0,1-2.16-.88c-1.2-.87-1.78-1.7-1.78-2.54a7.13,7.13,0,0,1,.18-1.38,176.46,176.46,0,0,1,5.78-19,100.64,100.64,0,0,1,4.3-10.94c.81-1.5,1.56-2.19,2.38-2.19a4.8,4.8,0,0,1,1.18.26c2.78.77,4,1.53,4,2.53,0,.47-.24,1.06-1.34,1.32-4.31,7.47-8.21,17.27-11.59,29.16a2.68,2.68,0,0,0,0,2.09,1.19,1.19,0,0,1,.18.61A1,1,0,0,1,196.31,783.75ZM205,748s-.45,0-1.28,1.55a102.9,102.9,0,0,0-4.22,10.77,173,173,0,0,0-5.74,18.9,5.6,5.6,0,0,0-.16,1.11c0,.23.17.74,1.28,1.55a3.57,3.57,0,0,0,1.21.62,3.88,3.88,0,0,1,0-2.8c3.44-12.1,7.42-22.08,11.84-29.67l.15-.25.29,0c.47-.07.59-.18.6-.2s-.27-.53-3.1-1.31A7,7,0,0,0,205,748Z"/><path d="M248,759.14q-.9,3.75-4.69,9.54t-6.61,7.8a6.64,6.64,0,0,1-3.88,1.42,20.86,20.86,0,0,1-5.34-1.7c-.56-.23-.83-.49-.83-.8s.63-.69,1.9-.69a7.8,7.8,0,0,0,4.82-1.28,29.09,29.09,0,0,0,6.31-6.94,25.47,25.47,0,0,0,4.54-11q.42-3-2-3.54a5.68,5.68,0,0,0-2.25,0,31,31,0,0,0-10.37,2.35Q223.8,775.23,219,787.75c.18-.07.87-.46,2-1.18a2.82,2.82,0,0,1,1.6-.52c.67.11,1.33.79,2,2a5.41,5.41,0,0,1,.79,2.22c0,.62-.4.9-1.21.83a6,6,0,0,0-2.88,1,15.29,15.29,0,0,0-3.74,2.71,2.25,2.25,0,0,1-1.6.76,4.67,4.67,0,0,1-2.81-1.53c-.69-.67-1-1.24-.9-1.73s.44-.67,1.11-.83a239,239,0,0,0,12.59-35.65q-13,5.87-13,10.93a4.32,4.32,0,0,0,.24,1.42q.07.27.66,1.77a1.82,1.82,0,0,1,.14.66c0,.64-.25,1-.76,1-.72,0-2.09-2-4.13-6a3.46,3.46,0,0,1-.45-1.66q0-2,2.57-4.44A41.6,41.6,0,0,1,217.8,755a65.33,65.33,0,0,1,9.4-4.5,12.16,12.16,0,0,0,.42-2.78c0-.92.23-1.39.69-1.39.62,0,1.72.85,3.29,2.54,3.82-1.11,6.39-1.66,7.74-1.63,2.56,0,4.39,1.4,5.47,4a15.75,15.75,0,0,1,2.78,2.4,3.92,3.92,0,0,1,.86,2.56A12.93,12.93,0,0,1,248,759.14Z"/><path d="M215.93,796.16a5.15,5.15,0,0,1-3.22-1.68c-.87-.85-1.23-1.6-1.09-2.31a1.63,1.63,0,0,1,1.26-1.22,243,243,0,0,0,12.12-34c-7.64,3.58-11.51,6.88-11.51,9.83a3.68,3.68,0,0,0,.21,1.22c0,.12.13.43.65,1.74a2.41,2.41,0,0,1,.19.88c0,1.48-1.06,1.59-1.38,1.59-.7,0-1.7-.49-4.68-6.37a4,4,0,0,1-.51-1.94c0-1.54.93-3.18,2.76-4.89a41.27,41.27,0,0,1,6.77-4.52,68.11,68.11,0,0,1,9.18-4.43,11.19,11.19,0,0,0,.32-2.32c0-1.74.82-2,1.31-2s1.42.29,3.48,2.45c3.71-1.06,6.18-1.6,7.56-1.55,2.76,0,4.77,1.49,6,4.28a15.65,15.65,0,0,1,2.76,2.4,4.62,4.62,0,0,1,1,3,13.26,13.26,0,0,1-.47,3.06h0a33.71,33.71,0,0,1-4.78,9.73c-2.6,4-4.81,6.56-6.76,8a7.29,7.29,0,0,1-4.24,1.53c-.53,0-1.68-.18-5.57-1.74-.81-.33-1.22-.79-1.22-1.36,0-1.31,1.9-1.31,2.52-1.31a7.23,7.23,0,0,0,4.45-1.16,28.42,28.42,0,0,0,6.17-6.79,25.16,25.16,0,0,0,4.45-10.69c.3-2.13-.67-2.65-1.55-2.86a5.17,5.17,0,0,0-2,0,30.48,30.48,0,0,0-10,2.21c-3.57,12.89-6.93,23.51-10,31.59l.55-.33a3.25,3.25,0,0,1,2-.6c.91.16,1.7.92,2.45,2.33a5.88,5.88,0,0,1,.87,2.51,1.41,1.41,0,0,1-.43,1.07,1.88,1.88,0,0,1-1.45.37,5.19,5.19,0,0,0-2.54.9,14.92,14.92,0,0,0-3.6,2.6A2.82,2.82,0,0,1,215.93,796.16Zm10.9-41.43-.32,1.24a240.14,240.14,0,0,1-12.62,35.73l-.12.28-.29.07c-.43.11-.64.25-.65.35s0,.46.72,1.18c1.22,1.12,2,1.36,2.38,1.36a1.63,1.63,0,0,0,1.16-.59,15.91,15.91,0,0,1,3.9-2.81,6.26,6.26,0,0,1,3.23-1c.39,0,.5,0,.5-.06a.29.29,0,0,0,0-.16,4.86,4.86,0,0,0-.73-1.93c-.72-1.37-1.27-1.65-1.54-1.7a2.34,2.34,0,0,0-1.18.45,15.27,15.27,0,0,1-2.14,1.22l-1.28.48.5-1.27c3.21-8.29,6.78-19.51,10.62-33.37l.08-.29.28-.11a31.59,31.59,0,0,1,10.57-2.41,6.13,6.13,0,0,1,2.41,0c1.37.33,2.9,1.33,2.49,4.22a26.34,26.34,0,0,1-4.64,11.22,29.89,29.89,0,0,1-6.45,7.08,8.41,8.41,0,0,1-5.19,1.4,4.21,4.21,0,0,0-1.2.13,2.65,2.65,0,0,0,.36.19c3.58,1.43,4.74,1.65,5.11,1.65a6.06,6.06,0,0,0,3.52-1.31c1.81-1.29,4-3.86,6.45-7.64a32.66,32.66,0,0,0,4.62-9.34h0a12.42,12.42,0,0,0,.43-2.77,3.36,3.36,0,0,0-.73-2.18,15.21,15.21,0,0,0-2.66-2.28l-.14-.1-.06-.17c-1-2.43-2.61-3.63-4.92-3.67a33.85,33.85,0,0,0-7.55,1.6l-.37.11-.25-.28c-2-2.16-2.7-2.32-2.84-2.33a2.79,2.79,0,0,0-.09.77,12.73,12.73,0,0,1-.43,2.92l-.08.32-.31.11a65.37,65.37,0,0,0-9.3,4.47,40.61,40.61,0,0,0-6.55,4.35c-1.57,1.47-2.36,2.81-2.36,4a2.85,2.85,0,0,0,.37,1.37c2.62,5.18,3.48,5.67,3.63,5.72s.11-.09.11-.37a1,1,0,0,0-.1-.42c-.53-1.36-.64-1.7-.68-1.85a4.74,4.74,0,0,1-.26-1.57c0-3.68,4.38-7.43,13.4-11.49Z"/><path d="M267.39,768.57a30.53,30.53,0,0,1-1.22,8.67c-.25.83-.6,1.25-1,1.25A5.56,5.56,0,0,1,263,777.1a1.67,1.67,0,0,1-.41-2,18.54,18.54,0,0,0,1-5.06c0-.44-.1-.66-.28-.66s-.73.41-1.35,1.24a66,66,0,0,0-10.79,21.09c-.76,2.47-1.41,3.71-1.94,3.71a15.11,15.11,0,0,1-2.74-1.22c-.78-.39-1.05-1.15-.79-2.29a153.34,153.34,0,0,1,5.89-20.25,40.79,40.79,0,0,0-3.26,3.71.86.86,0,0,1-.76.42c-.39,0-.59-.17-.59-.52a1.17,1.17,0,0,1,.28-.69q1.69-2.05,4.54-6.24c.58-1,1.15-1.53,1.73-1.53a7.5,7.5,0,0,1,2.53,1c.72.37.84.87.35,1.49s-1.47,3-2.88,7.11-2.26,7.05-2.77,9.29a98.23,98.23,0,0,1,10.71-18.55c.76-1,1.38-1.52,1.84-1.52a3.15,3.15,0,0,1,1.7.83,4.94,4.94,0,0,1,1.84.45A1.93,1.93,0,0,1,267.39,768.57Z"/><path d="M249.18,796.06c-.2,0-.45,0-3-1.28-.73-.37-1.53-1.18-1.12-3a168.45,168.45,0,0,1,4.86-17.44,15.9,15.9,0,0,0-1.12,1.38,1.46,1.46,0,0,1-1.27.68,1.1,1.1,0,0,1-1.21-1.13,1.75,1.75,0,0,1,.4-1c1.14-1.38,2.66-3.46,4.53-6.23.68-1.19,1.42-1.79,2.24-1.79a6.84,6.84,0,0,1,2.81,1,1.68,1.68,0,0,1,.95,1.08,1.61,1.61,0,0,1-.4,1.34c-.31.42-1.06,2-2.78,6.93-.29.87-.57,1.69-.82,2.48a93,93,0,0,1,7.69-12.3c1.63-2.18,2.48-2.25,4.27-.92a4.36,4.36,0,0,1,2,.54,2.52,2.52,0,0,1,.84,2.16,31.44,31.44,0,0,1-1.24,8.85c-.34,1.12-.89,1.68-1.63,1.68-.37,0-.93-.18-2.54-1.53a2.23,2.23,0,0,1-.61-2.63,19.29,19.29,0,0,0,.94-4.56,8.06,8.06,0,0,0-.52.64,65.57,65.57,0,0,0-10.69,20.9C250.65,795.35,249.93,796.06,249.18,796.06Zm4-27-1.1,2.87a154.07,154.07,0,0,0-5.87,20.17c-.27,1.23.25,1.49.48,1.6a25.76,25.76,0,0,0,2.42,1.13c.16-.15.63-.77,1.4-3.26a66.85,66.85,0,0,1,10.88-21.27c.79-1,1.33-1.49,1.84-1.49.27,0,.89.13.89,1.28a18.77,18.77,0,0,1-1,5.24c-.25.79,0,1.12.23,1.32a6.18,6.18,0,0,0,1.78,1.25s.22-.14.42-.82a29.93,29.93,0,0,0,1.19-8.49c0-.6-.12-1-.33-1.16a4.12,4.12,0,0,0-1.55-.34l-.17,0-.14-.11c-.82-.63-1.2-.7-1.32-.7s-.4,0-1.35,1.28A98,98,0,0,0,251.27,786l-1.16-.38c.51-2.26,1.45-5.41,2.79-9.36,1.92-5.55,2.62-6.81,3-7.28a.61.61,0,0,0,.17-.33.67.67,0,0,0-.31-.24,6.9,6.9,0,0,0-2.25-.91c-.15,0-.57.12-1.2,1.22-1.92,2.84-3.46,5-4.6,6.33a.83.83,0,0,0-.11.2.25.25,0,0,0,.2-.14,40.6,40.6,0,0,1,3.32-3.79Z"/><path d="M285.83,784.77Q277.4,795.54,274,795.55c-1.08,0-2.46-.75-4.12-2.25-1.74-.81-2.6-1.9-2.6-3.26a4.48,4.48,0,0,1,.07-.8,57.27,57.27,0,0,1,2.53-10.51c-.86-.44-1.29-.85-1.29-1.24s.25-.49.73-.49a2.46,2.46,0,0,1,1.15.31,43.67,43.67,0,0,1,5.54-9.85c1.07-1.29,2-1.94,2.88-1.94a11.17,11.17,0,0,1,2.91,1c-.11-.7.09-1.1.59-1.21H284c1,0,1.49.17,1.49.51a4.18,4.18,0,0,1-.1.6,4.2,4.2,0,0,0-.1.9c0,.83,0,1.86,0,3.08s0,2.05,0,2.46q0,4.3-2.36,6a8.08,8.08,0,0,1-4.86,1.56,23.92,23.92,0,0,1-4.71-.76,19.49,19.49,0,0,0-1.32,4.2,26.85,26.85,0,0,0-.9,7q0,1.8,1.14,1.8a3.74,3.74,0,0,0,1.08-.21q4-1.41,11.2-8.66a1.31,1.31,0,0,1,.9-.46q.66,0,.66.63A1.3,1.3,0,0,1,285.83,784.77Zm-4.06-15.33c0-.9-.19-1.35-.59-1.35a2.14,2.14,0,0,0-1.1.55q-3.4,2.75-6,9.61.69.11,2.43.21a5.37,5.37,0,0,0,4.19-1.29,5,5,0,0,0,1.15-3.43Q281.77,775.51,281.77,769.44Z"/><path d="M274,796.16c-1.24,0-2.7-.77-4.47-2.35-1.9-.91-2.87-2.18-2.87-3.77a5.57,5.57,0,0,1,.08-.9,57.78,57.78,0,0,1,2.4-10.12,2,2,0,0,1-1.16-1.53c0-.54.35-1.1,1.34-1.1a2.66,2.66,0,0,1,.83.13,42.49,42.49,0,0,1,5.4-9.45c1.19-1.45,2.28-2.16,3.34-2.16a7.13,7.13,0,0,1,2.35.71,1.35,1.35,0,0,1,1-.9l.13,0H284c.52,0,2.11,0,2.11,1.13a3.52,3.52,0,0,1-.12.72,3.74,3.74,0,0,0-.09.78c0,.83,0,1.85,0,3.07s0,2.06,0,2.47c0,3.06-.88,5.25-2.61,6.5a8.74,8.74,0,0,1-5.22,1.68,22.48,22.48,0,0,1-4.37-.67A24.4,24.4,0,0,0,272.7,784a26.73,26.73,0,0,0-.89,6.86c0,1.2.39,1.2.53,1.2a3,3,0,0,0,.89-.18c2.56-.91,6.25-3.77,10.95-8.52a1.89,1.89,0,0,1,1.34-.63,1.18,1.18,0,0,1,1.27,1.24,1.85,1.85,0,0,1-.48,1.18C280.44,792.66,276.52,796.16,274,796.16Zm-4.7-18.55a3.06,3.06,0,0,0,.86.58l.46.24-.16.5a57.69,57.69,0,0,0-2.51,10.39,4.66,4.66,0,0,0-.06.72c0,1.11.74,2,2.25,2.7l.15.1c1.92,1.73,3.08,2.1,3.71,2.1,1.43,0,4.57-1.83,11.38-10.55v0a.74.74,0,0,0,.2-.4c.09,0,0,0,0,0a.81.81,0,0,0-.47.27c-4.89,4.94-8.63,7.82-11.43,8.81a4.19,4.19,0,0,1-1.28.25c-.64,0-1.71-.32-1.75-2.41a28,28,0,0,1,.91-7.16,19.31,19.31,0,0,1,1.38-4.34l.22-.41.46.1a23.52,23.52,0,0,0,4.57.75,7.55,7.55,0,0,0,4.5-1.44c1.39-1,2.1-2.86,2.1-5.51,0-.41,0-1.23,0-2.45s0-2.26,0-3.09a4.73,4.73,0,0,1,.12-1,2.62,2.62,0,0,0,.06-.3,3.84,3.84,0,0,0-.85-.07h-1.54c-.07,0-.13.12-.07.5l.19,1.11-1-.45a10.31,10.31,0,0,0-2.67-1c-.65,0-1.48.59-2.4,1.71a43.26,43.26,0,0,0-5.46,9.71l-.27.6-.58-.31A1.65,1.65,0,0,0,269.27,777.61Zm7.65,1.47h-.4c-1.2-.07-2-.14-2.5-.22l-.75-.11.27-.71c1.74-4.65,3.81-8,6.15-9.86a2.6,2.6,0,0,1,1.49-.69c.55,0,1.21.34,1.21,2,0,2.75,0,3.88,0,4.32h.07a5.65,5.65,0,0,1-1.32,3.84A5.82,5.82,0,0,1,276.92,779.08ZM275,777.73c.42,0,1,.07,1.61.11a4.88,4.88,0,0,0,3.72-1.1,4.12,4.12,0,0,0,.94-2.66c-.08-.67-.08-2-.08-4.64a2.72,2.72,0,0,0-.07-.71,3.29,3.29,0,0,0-.64.4C278.41,770.77,276.57,773.67,275,777.73Z"/><path d="M307.43,769.09a21.27,21.27,0,0,1-1.49,8.67,1.23,1.23,0,0,1-1.94.63c-1.3-.72-1.94-1.31-1.94-1.77q0-.32.45-.66a14.45,14.45,0,0,0,1.07-5.17,1.41,1.41,0,0,0-1.56-1.56,2.87,2.87,0,0,1-.52-.08,2.29,2.29,0,0,0-.55-.09c-.81,0-1.8.76-3,2.29a29.6,29.6,0,0,0-3.71,7.14,37.38,37.38,0,0,0-1.95,6.48,18.93,18.93,0,0,0-.38,3.54q0,5.31,3.37,5.2c2,0,4.84-2.51,8.63-7.38.37-.44.7-.66,1-.66s.45.18.45.55a1.85,1.85,0,0,1-.18.7,28.2,28.2,0,0,1-4.82,7.94,3.22,3.22,0,0,1-2.56.86,10.34,10.34,0,0,1-2.71-.45,7.83,7.83,0,0,1-5.09-2,6.44,6.44,0,0,1-1.91-5.17q.13-3.67,2.57-10.19,2.6-7.08,5.44-10.27c.88-1,1.62-1.45,2.22-1.45a9.68,9.68,0,0,1,3.53,1.52,8.33,8.33,0,0,1,2.81-.52C306.52,767.15,307.43,767.8,307.43,769.09Z"/><path d="M297.83,796.34a10.94,10.94,0,0,1-2.81-.46,8.42,8.42,0,0,1-5.42-2.21,7.07,7.07,0,0,1-2.09-5.64c.09-2.5,1-6,2.6-10.38,1.75-4.76,3.62-8.28,5.56-10.45,1-1.12,1.89-1.67,2.68-1.67.44,0,1.29.16,3.6,1.47a8.56,8.56,0,0,1,2.74-.46c2.92,0,3.36,1.6,3.36,2.55A21.89,21.89,0,0,1,306.5,778a2,2,0,0,1-1.16,1.16,2,2,0,0,1-1.64-.26c-1.56-.86-2.26-1.57-2.26-2.3a1.37,1.37,0,0,1,.55-1,13.76,13.76,0,0,0,1-4.77c0-.82-.39-1-1-1a3,3,0,0,1-.67-.11,1.81,1.81,0,0,0-.4-.07c-.34,0-1.12.27-2.5,2.05a29.28,29.28,0,0,0-3.62,7,36,36,0,0,0-1.91,6.37,17.79,17.79,0,0,0-.37,3.43c0,2,.36,3.34,1.07,4a2.17,2.17,0,0,0,1.66.56c1.21,0,3.61-1.29,8.17-7.15a2,2,0,0,1,1.49-.9,1,1,0,0,1,1.06,1.17,2.43,2.43,0,0,1-.22.93,29,29,0,0,1-4.92,8.11A3.79,3.79,0,0,1,297.83,796.34Zm.52-29.58c-.19,0-.74.12-1.77,1.26-1.83,2.05-3.62,5.44-5.32,10.06a35.08,35.08,0,0,0-2.53,10,5.86,5.86,0,0,0,1.72,4.71,7.28,7.28,0,0,0,4.71,1.87l.13,0c2.53.71,4,.49,4.63-.22a27.66,27.66,0,0,0,4.72-7.78,2,2,0,0,0,.11-.3,2.07,2.07,0,0,0-.35.34c-3.93,5.06-6.91,7.55-9.09,7.61a3.34,3.34,0,0,1-2.54-.91c-1-.94-1.45-2.55-1.45-4.91a19.1,19.1,0,0,1,.39-3.65,37.84,37.84,0,0,1,2-6.59,30.29,30.29,0,0,1,3.8-7.29c1.31-1.71,2.45-2.53,3.47-2.53a2.92,2.92,0,0,1,.7.1,1.56,1.56,0,0,0,.37.07,2,2,0,0,1,2.18,2.15,14.94,14.94,0,0,1-1.11,5.4l-.06.17-.15.11c-.16.12-.21.2-.21.21h0a4.61,4.61,0,0,0,1.63,1.19.9.9,0,0,0,.66.16c.19-.06.33-.31.42-.5a20.83,20.83,0,0,0,1.44-8.42c0-.39,0-1.32-2.13-1.32a7.49,7.49,0,0,0-2.59.48l-.27.1-.25-.15C299.33,766.9,298.57,766.76,298.35,766.76Z"/><path d="M319.22,771.07a137.69,137.69,0,0,1-4.33,15.57,23.69,23.69,0,0,0,2.77-3.3.67.67,0,0,1,.49-.31c.37,0,.41.33.13,1q-.16.39-2.91,4.75a34.55,34.55,0,0,0-3.05,5.9,1.15,1.15,0,0,1-1.14.8,5.11,5.11,0,0,1-2.26-.8c-.6-.33-.9-.57-.9-.73a2.76,2.76,0,0,1,.38-.9,56.71,56.71,0,0,0,4.16-11A61.26,61.26,0,0,0,315,770.86c.06-1,0-1.56-.32-1.56s-.58.26-1.11.77l-2.15,2c-.76.69-1.14.72-1.14.1a1.23,1.23,0,0,1,.31-.69,49.22,49.22,0,0,1,3.47-4.34,1.56,1.56,0,0,1,1.07-.59,3.33,3.33,0,0,1,1.63.77,12.16,12.16,0,0,1,1.77.52,1.93,1.93,0,0,1,.8,1.8A8.6,8.6,0,0,1,319.22,771.07Zm4.89-15.19a1.17,1.17,0,0,1,.55.94q0,1-3,3.12a4.87,4.87,0,0,1-3.81,1,4.5,4.5,0,0,1-1.8-.76,1.44,1.44,0,0,1-.37-.43.4.4,0,0,1-.05-.37c.07-.09.21-.11.42-.07a44.47,44.47,0,0,0,4.19-4c.53-.61.91-.91,1.14-.91A7.23,7.23,0,0,1,324.11,755.88Z"/><path d="M311.18,796.06a5.58,5.58,0,0,1-2.56-.88c-.74-.4-1.21-.75-1.21-1.26a2.66,2.66,0,0,1,.46-1.2,57.22,57.22,0,0,0,4.11-10.9,61.27,61.27,0,0,0,2.43-11,5.66,5.66,0,0,0,0-.67,4.91,4.91,0,0,0-.4.36l-2.16,2c-.5.46-1.09.89-1.65.65a1,1,0,0,1-.52-1,1.82,1.82,0,0,1,.43-1.06,51.65,51.65,0,0,1,3.5-4.38,2.13,2.13,0,0,1,1.53-.79,3.62,3.62,0,0,1,1.9.81,8.29,8.29,0,0,1,1.82.56,2.51,2.51,0,0,1,1.09,2.33,9,9,0,0,1-.15,1.53h0a119.31,119.31,0,0,1-3.47,12.88c.26-.33.53-.69.82-1.08a1.23,1.23,0,0,1,1-.56.86.86,0,0,1,.77.39,1.53,1.53,0,0,1-.07,1.44c-.1.2-.51.93-3,4.83a33.53,33.53,0,0,0-3,5.78A1.77,1.77,0,0,1,311.18,796.06Zm-2.48-2.27a3.7,3.7,0,0,0,.51.32,4.39,4.39,0,0,0,2,.72.54.54,0,0,0,.57-.41,34.93,34.93,0,0,1,3.1-6l1.57-2.51a13.48,13.48,0,0,1-1.12,1.18l-1.69,1.51.69-2.16A138,138,0,0,0,318.62,771a8.38,8.38,0,0,0,.13-1.31c0-1-.38-1.2-.51-1.28s-.28-.1-1.6-.45l-.2-.09c-.85-.61-1.19-.65-1.28-.65a1,1,0,0,0-.62.39c-1,1.06-1.87,2.18-2.74,3.34l1.39-1.29c.68-.66,1.13-.93,1.52-.93a.81.81,0,0,1,.6.26c.3.32.4.89.33,1.95a62,62,0,0,1-2.49,11.26,58.08,58.08,0,0,1-4.21,11.16A3.47,3.47,0,0,0,308.7,793.79Zm10-32.18a4.29,4.29,0,0,1-.94-.1,5,5,0,0,1-2-.86,2.38,2.38,0,0,1-.55-.64,1,1,0,0,1-.06-.93l.06-.1a.84.84,0,0,1,.7-.33,40.57,40.57,0,0,0,3.93-3.75c.71-.8,1.17-1.12,1.61-1.12s1.09.19,3.07,1.61h0a1.77,1.77,0,0,1,.8,1.43c0,.62-.37,1.59-3.24,3.62A6,6,0,0,1,318.68,761.61Zm-2.17-1.9a4.07,4.07,0,0,0,1.48.6,4.26,4.26,0,0,0,3.35-.88c2.63-1.87,2.71-2.54,2.71-2.61s0-.21-.3-.44a7.48,7.48,0,0,0-2.33-1.37,6.59,6.59,0,0,0-.7.69A42.13,42.13,0,0,1,316.51,759.71Z"/><path d="M345.19,772.7a35.11,35.11,0,0,1-1.49,8.18q-2.25,8.05-6.38,12.49a6.53,6.53,0,0,1-4.85,2.35,10.4,10.4,0,0,1-2.67-.45,8.51,8.51,0,0,1-5.31-2,6.27,6.27,0,0,1-2.08-5.17,36.77,36.77,0,0,1,2.53-10.26q2.64-7.18,5.48-10.34c.9-1,1.64-1.52,2.22-1.52.78,0,2.06.81,3.81,2.43.49-.23,1.48-.66,3-1.29a6.23,6.23,0,0,1,1.74-.38c.9,0,1.9.85,3,2.53A5.57,5.57,0,0,1,345.19,772.7Zm-4,1c.16-1.55.25-2.54.25-3,0-1-.31-1.46-.91-1.46a4.05,4.05,0,0,0-.9.14l-5.37,2.19a6.24,6.24,0,0,1-1.08.38c-.18,0-.37-.22-.55-.66a25.47,25.47,0,0,0-3.75,7.11A39.31,39.31,0,0,0,327,785a18.93,18.93,0,0,0-.38,3.54q0,5.34,3.29,5.2a5.52,5.52,0,0,0,2.85-1q2.91-2,5.44-7.9A37,37,0,0,0,341.2,773.71Z"/><path d="M332.47,796.34a10.76,10.76,0,0,1-2.78-.46,9.08,9.08,0,0,1-5.61-2.2A6.85,6.85,0,0,1,321.8,788a37.24,37.24,0,0,1,2.56-10.44c1.78-4.84,3.66-8.38,5.6-10.54,1.05-1.17,1.9-1.72,2.68-1.72s2.17.73,3.92,2.31c.57-.25,1.45-.63,2.64-1.12a6.38,6.38,0,0,1,2-.43c1.13,0,2.28.92,3.53,2.81a6.2,6.2,0,0,1,1.1,3.82,35.81,35.81,0,0,1-1.51,8.33c-1.52,5.43-3.72,9.72-6.52,12.73A7.13,7.13,0,0,1,332.47,796.34Zm.17-29.79c-.18,0-.71.13-1.76,1.32-1.84,2-3.64,5.45-5.36,10.14a36.26,36.26,0,0,0-2.5,10.07,5.63,5.63,0,0,0,1.88,4.69,7.89,7.89,0,0,0,4.93,1.89l.13,0a10.16,10.16,0,0,0,2.51.43,5.9,5.9,0,0,0,4.4-2.16c2.67-2.87,4.77-7,6.24-12.23a35,35,0,0,0,1.47-8h0a5,5,0,0,0-.9-3.1c-1.3-2-2.13-2.26-2.51-2.26a5.3,5.3,0,0,0-1.54.35c-1.44.6-2.44,1-2.91,1.25l-.38.18-.3-.28C333.82,766.77,332.92,766.55,332.64,766.55Zm-2.88,27.78a3.19,3.19,0,0,1-2.29-.87c-1-.93-1.44-2.55-1.44-5a19.1,19.1,0,0,1,.39-3.65,39.65,39.65,0,0,1,1.9-6.62,26.31,26.31,0,0,1,3.84-7.28l.65-.79.39.94c.05.1.08.18.11.23l.73-.28,5.37-2.19a4.56,4.56,0,0,1,1.13-.18c.46,0,1.52.2,1.52,2.07,0,.43-.08,1.42-.25,3h0a37.52,37.52,0,0,1-3,11.24c-1.75,4.1-3.6,6.77-5.66,8.17a6.13,6.13,0,0,1-3.17,1.15Zm2.85-21.93a27.18,27.18,0,0,0-3.14,6.27,37.17,37.17,0,0,0-1.84,6.41,17.86,17.86,0,0,0-.38,3.43c0,2,.36,3.39,1.07,4.07a2.08,2.08,0,0,0,1.59.52,5,5,0,0,0,2.53-.94c1.83-1.24,3.58-3.81,5.22-7.63a36.74,36.74,0,0,0,2.93-10.89h0c.16-1.52.24-2.49.24-2.88s-.05-.84-.29-.84a3.25,3.25,0,0,0-.75.12l-5.29,2.15a3.83,3.83,0,0,1-1.31.43A.88.88,0,0,1,332.61,772.4Z"/><path d="M358.54,786.78c.07,2.77-1.47,4.67-4.61,5.68a7.2,7.2,0,0,1-1.11,2,3.6,3.6,0,0,1-2.36,1,10,10,0,0,1-2.15-.11l-5-.76a1.15,1.15,0,0,1-1-1c.09-.62.74-1,1.94-1.11q2.46-.16,7.28-.86a3.59,3.59,0,0,0,2.57-2.05,4.24,4.24,0,0,0,.45-2q0-2.19-2.19-7.7c-1.43-3.58-2.1-6-2-7.18q.29-4.33,8-6c.51-.12.76.07.76.55,0,.28-.18.5-.55.66q-3.75,1.63-3.75,4a10.11,10.11,0,0,0,.35,2.34c.23.94.93,3.19,2.08,6.75A21.28,21.28,0,0,1,358.54,786.78Zm5.55-19.9a23.87,23.87,0,0,1-.84,5,3.3,3.3,0,0,1-.69,1.52,4.14,4.14,0,0,1-1.18.52,6.56,6.56,0,0,1-1.59.49c-.35,0-.52-.23-.52-.69a4.44,4.44,0,0,1,.14-1,15.4,15.4,0,0,0,.64-4.77q-.19-1.33.78-1.68a7,7,0,0,1,2.18-.87Q364.09,765.38,364.09,766.88Z"/><path d="M349.88,796.08a12.07,12.07,0,0,1-1.66-.13l-5-.77a1.75,1.75,0,0,1-1.51-1.49l0-.1,0-.11c.14-.93,1-1.48,2.49-1.63s4.07-.4,7.25-.86a2.94,2.94,0,0,0,2.1-1.7,3.65,3.65,0,0,0,.39-1.79c0-1.37-.72-3.88-2.14-7.47s-2.15-6.14-2.05-7.45c.2-3.17,3.06-5.39,8.49-6.58a1.26,1.26,0,0,1,1.1.18,1.05,1.05,0,0,1,.3.39,1.76,1.76,0,0,1,1-.9,5.94,5.94,0,0,1,2.39-.9c.51,0,1.69.21,1.69,2.11a24.52,24.52,0,0,1-.85,5.13,2.63,2.63,0,0,1-2.27,2.48,5.65,5.65,0,0,1-1.79.52,1.13,1.13,0,0,1-1.14-1.3,5,5,0,0,1,.16-1.14,14.13,14.13,0,0,0,.63-4.55s0-.07,0-.1a1.8,1.8,0,0,1-.65.45c-2.24,1-3.37,2.14-3.37,3.46a9.6,9.6,0,0,0,.33,2.2c.22.91.92,3.17,2.06,6.7a21.43,21.43,0,0,1,1.35,6c.08,3-1.53,5.07-4.76,6.2a6.94,6.94,0,0,1-1.12,1.93,4.22,4.22,0,0,1-2.76,1.17Zm-7-2.5a.51.51,0,0,0,.47.39l5,.76a8.82,8.82,0,0,0,2,.1,3,3,0,0,0,2-.78,6.29,6.29,0,0,0,1-1.82l.11-.26.27-.09c2.88-.93,4.25-2.6,4.19-5.09h0a21.68,21.68,0,0,0-1.29-5.68c-1.18-3.61-1.86-5.83-2.1-6.79a10.85,10.85,0,0,1-.36-2.49c0-1.85,1.38-3.39,4.11-4.58l.06,0c-4.76,1.07-7.25,2.9-7.42,5.45-.05.77.24,2.58,2,6.91,1.5,3.79,2.23,6.38,2.23,7.92a5,5,0,0,1-.52,2.34,4.16,4.16,0,0,1-3,2.35c-3.27.48-5.73.77-7.38.89C343.91,793.11,343.08,793.23,342.91,793.58Zm17-19.7ZM363,766a6.59,6.59,0,0,0-1.9.8c-.25.09-.58.21-.46,1.05a15.17,15.17,0,0,1-.65,5,4.31,4.31,0,0,0-.12.87v.06a12.33,12.33,0,0,0,1.28-.43,5.49,5.49,0,0,0,1-.4,2.8,2.8,0,0,0,.51-1.23,23.49,23.49,0,0,0,.81-4.83C363.47,766,363.2,766,363,766Z"/><path d="M402,771.56a108.81,108.81,0,0,0-4.41,14.84,16.63,16.63,0,0,0,1.37-1.5,14.63,14.63,0,0,1,1.06-1.17,1.35,1.35,0,0,1,1-.63.46.46,0,0,1,.52.52,1.35,1.35,0,0,1-.28.73,28.2,28.2,0,0,0-4.33,9.74c-.21.93-.52,1.39-.94,1.39a5.23,5.23,0,0,1-2.18-1.11c-.62-.42-1-.76-1.07-1a3.09,3.09,0,0,1,0-1.53,79,79,0,0,1,3.64-14.63A83.11,83.11,0,0,1,388.15,788a48.24,48.24,0,0,1-6.55,6.59,4.63,4.63,0,0,1-2.22,1,3.79,3.79,0,0,1-1.91-1,3.41,3.41,0,0,1-1.84-3.05,7.23,7.23,0,0,1,.07-.87q.63-5.13,4.51-11.94a48,48,0,0,1,8.91-11.5,4.46,4.46,0,0,1,2.91-1.49c.83,0,2.42,1.15,4.75,3.3a.77.77,0,0,1,.31.58c0,.37-.24.56-.72.56a1.46,1.46,0,0,1-.52-.1c-1.65-.7-3-.67-4,.06q-3.25,2.4-7.21,8.43-4.57,6.93-5.51,12.48a3.75,3.75,0,0,0,0,.45c0,.58.23.87.7.87a4.47,4.47,0,0,0,2.81-1.63,93.86,93.86,0,0,0,8.32-9.5,47.77,47.77,0,0,0,5.82-9c.63-1.47,1-2.51,1.22-3.12.3-1,.62-1.56,1-1.56a6.82,6.82,0,0,1,2.42,1.43,1.92,1.92,0,0,1,.87,1.07A3.44,3.44,0,0,1,402,771.56Z"/><path d="M379.38,796.2a4.18,4.18,0,0,1-2.29-1.14,4,4,0,0,1-2.07-3.53,6.88,6.88,0,0,1,.07-1c.43-3.47,2-7.57,4.59-12.16a48.86,48.86,0,0,1,9-11.64,4.8,4.8,0,0,1,3.35-1.65c.7,0,1.9.46,5.15,3.45a2.1,2.1,0,0,1,.25.28c.27-.89.69-1.86,1.52-1.86.37,0,1,.19,2.79,1.54a2.45,2.45,0,0,1,1.11,1.48,3.85,3.85,0,0,1-.34,1.76,120,120,0,0,0-3.88,12.5c.53-.62.75-.85.87-1a1.91,1.91,0,0,1,1.49-.81,1.06,1.06,0,0,1,1.14,1.13,2,2,0,0,1-.38,1.07,27.57,27.57,0,0,0-4.25,9.53c-.28,1.25-.8,1.87-1.54,1.87-.36,0-1-.14-2.53-1.22a3,3,0,0,1-1.31-1.35,3.51,3.51,0,0,1,0-1.81,96.58,96.58,0,0,1,2.29-10.53q-2.46,3.41-5.8,7.22a48.77,48.77,0,0,1-6.66,6.68A5,5,0,0,1,379.38,796.2ZM392,766.34a4,4,0,0,0-2.42,1.33,47.87,47.87,0,0,0-8.8,11.35c-2.53,4.45-4,8.39-4.43,11.71a6.3,6.3,0,0,0-.06.8,2.8,2.8,0,0,0,1.54,2.52c1.12.88,1.52.92,1.59.92a4,4,0,0,0,1.87-.9,47.78,47.78,0,0,0,6.44-6.48,81.73,81.73,0,0,0,8.15-10.74l1.1.54a79.51,79.51,0,0,0-3.61,14.51,3.06,3.06,0,0,0-.05,1.18c0,.07.12.29.86.78a5.17,5.17,0,0,0,1.84,1,2.45,2.45,0,0,0,.34-.91,28.78,28.78,0,0,1,4.43-10,1.41,1.41,0,0,0,.14-.27.93.93,0,0,0-.43.36l-.1.1s-.22.21-1,1.1a17.4,17.4,0,0,1-1.42,1.54l-1.4,1.31.38-1.88a112.44,112.44,0,0,1,4.43-14.92h0a2.64,2.64,0,0,0,.28-1.15s0-.25-.62-.68a10,10,0,0,0-2-1.28,3.68,3.68,0,0,0-.46,1.09c-.19.64-.6,1.71-1.23,3.19a48.65,48.65,0,0,1-5.91,9.08,91.75,91.75,0,0,1-8.38,9.57,4.93,4.93,0,0,1-3.23,1.8,1.3,1.3,0,0,1-1.31-1.48,3.62,3.62,0,0,1,0-.54c.64-3.77,2.52-8.05,5.61-12.73,2.66-4.06,5.14-7,7.36-8.58,1.17-.87,2.71-.92,4.55-.14a.78.78,0,0,0,.36,0l-.06-.07c-3-2.78-4.07-3.12-4.38-3.14Zm1.74,3.83a2.36,2.36,0,0,0-1.44.46c-2.11,1.54-4.48,4.32-7.07,8.27-3,4.53-4.81,8.65-5.42,12.24,0,.12,0,.24,0,.35a.56.56,0,0,0,0,.27c.46,0,1.21-.27,2.41-1.46a92.74,92.74,0,0,0,8.27-9.45,48.22,48.22,0,0,0,5.75-8.81c.2-.47.38-.91.53-1.29a2.11,2.11,0,0,1-1.15-.12A5.07,5.07,0,0,0,393.7,770.17Z"/><path d="M433.08,740.84a.94.94,0,0,1,.45.72c0,.44-.26.66-.79.66a1.61,1.61,0,0,1-.73-.2,6,6,0,0,0-2.39-.8c-1.46,0-3.05,1.41-4.79,4.23q-9.43,15.36-13.42,39.7c-.07.44-.18,1-.34,1.77.53-.56,1.31-1.46,2.35-2.71.61-.71,1-1.07,1.32-1.07.6,0,.65.36.14,1.07a26.53,26.53,0,0,0-4.4,9.95c-.26.86-.58,1.29-1,1.29a1.42,1.42,0,0,1-.73-.32c-1.18-.78-1.85-1.25-2-1.38a2.44,2.44,0,0,1-.7-1.81,6.28,6.28,0,0,1,.18-1.35q4-22.08,10.36-37.62,4.78-11.72,8.57-15.18a2.94,2.94,0,0,1,2.08-.94,4.72,4.72,0,0,1,2.43,1.18Q431.39,739.41,433.08,740.84Z"/><path d="M409.51,796.06a1.93,1.93,0,0,1-1.08-.42c-1.59-1.06-1.94-1.32-2.06-1.43a3,3,0,0,1-.91-2.27,6.8,6.8,0,0,1,.19-1.48c2.67-14.67,6.17-27.37,10.4-37.72,3.25-8,6.1-13,8.71-15.41a3.52,3.52,0,0,1,2.52-1.09,5.18,5.18,0,0,1,2.78,1.3c1.15.94,2.28,1.87,3.41,2.82a1.53,1.53,0,0,1,.68,1.21,1.25,1.25,0,0,1-1.41,1.27,2.08,2.08,0,0,1-1-.29,5.52,5.52,0,0,0-2.1-.72c-1.21,0-2.68,1.36-4.27,3.94-6.16,10-10.62,23.19-13.27,39.08l.87-1c.78-.92,1.29-1.3,1.79-1.3a1,1,0,0,1,1,.51c.28.53-.07,1.13-.36,1.54a26,26,0,0,0-4.3,9.72C410.94,794.76,410.55,796.06,409.51,796.06Zm17.68-58.6a2.41,2.41,0,0,0-1.59.77c-2.45,2.25-5.28,7.28-8.42,15-4.19,10.28-7.67,22.89-10.33,37.5a6.07,6.07,0,0,0-.16,1.24,1.84,1.84,0,0,0,.51,1.37s.35.27,1.92,1.31a1.14,1.14,0,0,0,.39.21,2.3,2.3,0,0,0,.38-.84,26.83,26.83,0,0,1,3.89-9.25c-1,1.18-1.75,2-2.27,2.6L410,788.92l.47-2.13c.16-.73.27-1.31.34-1.74,2.66-16.23,7.2-29.66,13.5-39.92,1.87-3,3.61-4.53,5.31-4.53a6.61,6.61,0,0,1,2.66.87.82.82,0,0,0,.67.11,1,1,0,0,0-.24-.26h0c-1.13-.95-2.26-1.88-3.39-2.81a4.12,4.12,0,0,0-2.06-1Z"/><path class="cls-2" d="M503.75,749.71a.63.63,0,0,1,.24.49q0,.69-1.11.69a4,4,0,0,1-.64-.07,5.76,5.76,0,0,0-.68-.07c-1.09,0-2.18,1.07-3.29,3.19q-6.76,13.11-8.81,32.63.8-1.49,2.12-4c.25-.51.56-.76.93-.76s.66.29.66.87a2.53,2.53,0,0,1-.24,1A52.92,52.92,0,0,0,490.12,794c-.21,1-.66,1.49-1.35,1.49s-2-.6-3.57-1.8a3.67,3.67,0,0,1-1.32-1.39,4.39,4.39,0,0,1,0-2q1.26-7.51,3.23-16.95,2.28-10.79,3.33-12.73a122.63,122.63,0,0,0-9,12.62q-5.2,8.19-9.08,15.57a11.8,11.8,0,0,1,.69,3.23c0,.9-.76,2.05-2.29,3.46q-1.17,1.11-1.56,1.11c-.25,0-.93-.92-2-2.77a3.89,3.89,0,0,1-.73-1.87,7.66,7.66,0,0,1,1-2.36,114.33,114.33,0,0,0-8.08-20.11q-3.74,9.43-7.59,17.2,2.51,2.81,2.5,3.78c0,.51-.58.83-1.74,1a8.65,8.65,0,0,0-6.1,3.74c-.14.72-.48,1.08-1,1.08-.78,0-2-.71-3.64-2.12-.51-.44-.76-.79-.76-1.07s.21-.57.62-.94a43.4,43.4,0,0,1,5.31-3.88,117.24,117.24,0,0,0,10.5-22.54q-4.23-9.29-10.5-13a3.93,3.93,0,0,0-2-.62,4.21,4.21,0,0,0-2.77,1.35c-.9,1-1.81,2-2.71,3a2.13,2.13,0,0,1-1.56.87.55.55,0,0,1-.62-.63,1.67,1.67,0,0,1,.21-.73q4.68-9.39,8.94-9.22,5.07.18,13.14,12.55a20.52,20.52,0,0,0,2-8.15c0-1.24.18-1.87.55-1.87a6.67,6.67,0,0,1,2.43,1.49,2.32,2.32,0,0,1,.52,1.87q-.08,1.82-3.22,10.51a146.61,146.61,0,0,1,9.25,21.64q12.24-20.32,22-31.73a37.74,37.74,0,0,1,3-5.48,2.2,2.2,0,0,1,1.84-1.18Q499.63,746.38,503.75,749.71Z"/><path class="cls-2" d="M469.28,797.24c-.45,0-.85-.21-2.57-3.07a4.46,4.46,0,0,1-.82-2.19,6.09,6.09,0,0,1,1-2.43A111.49,111.49,0,0,0,459.49,771c-2.27,5.64-4.59,10.87-6.92,15.59,2.1,2.41,2.38,3.34,2.38,3.88,0,.86-.76,1.4-2.27,1.58a7.94,7.94,0,0,0-5.61,3.39,1.62,1.62,0,0,1-1.61,1.43c-1,0-2.24-.72-4-2.26-.67-.58-1-1.07-1-1.54a2,2,0,0,1,.83-1.4,43.27,43.27,0,0,1,5.27-3.86,117.5,117.5,0,0,0,10.29-22.07c-2.73-5.93-6.15-10.12-10.15-12.47a3.3,3.3,0,0,0-1.67-.54,3.64,3.64,0,0,0-2.35,1.19L440,756.85a2.69,2.69,0,0,1-2,1.07,1.17,1.17,0,0,1-1.24-1.24,2.17,2.17,0,0,1,.28-1c3.27-6.56,6.34-9.66,9.52-9.56,3.47.12,7.73,4,13,11.86a18.87,18.87,0,0,0,1.49-6.85c0-.74,0-2.48,1.16-2.48.38,0,1,.19,2.81,1.62a2.79,2.79,0,0,1,.75,2.37c0,1.27-1.08,4.68-3.17,10.45a150,150,0,0,1,8.76,20.22c7.84-12.93,15-23.22,21.33-30.6a37.3,37.3,0,0,1,3-5.48,2.76,2.76,0,0,1,2.35-1.46c1.26,0,3.21,1.1,6.14,3.47h0a1.23,1.23,0,0,1,.45,1c0,.3-.12,1.3-1.72,1.3a5.29,5.29,0,0,1-.74-.07,3.9,3.9,0,0,0-.58-.06c-.82,0-1.77,1-2.75,2.86-4.07,7.89-6.88,17.69-8.36,29.17l.58-1.1a1.66,1.66,0,0,1,1.48-1.09c.62,0,1.27.38,1.27,1.48a3,3,0,0,1-.29,1.21,54.14,54.14,0,0,0-2.77,10.24c-.36,1.73-1.38,2-2,2-.95,0-2.2-.61-3.94-1.93a4.08,4.08,0,0,1-1.53-1.68,4.58,4.58,0,0,1,0-2.3c.83-5,1.92-10.72,3.23-17,.87-4.12,1.61-7.25,2.21-9.45-1.95,2.58-4.2,5.87-6.71,9.8-3.39,5.34-6.4,10.49-8.94,15.3a11.56,11.56,0,0,1,.64,3.17c0,1.09-.81,2.37-2.48,3.91C470.14,797,469.66,797.24,469.28,797.24Zm.22-1.17ZM459.37,768l.62,1.24a116.82,116.82,0,0,1,8.12,20.22l.06.24-.12.21a8.15,8.15,0,0,0-.93,2.07,3.29,3.29,0,0,0,.64,1.55,20,20,0,0,0,1.61,2.42,9.12,9.12,0,0,0,1.05-.88c1.73-1.6,2.1-2.53,2.1-3a11.38,11.38,0,0,0-.67-3l-.08-.24.12-.23c2.58-4.91,5.65-10.16,9.11-15.61a122.89,122.89,0,0,1,9-12.69l3.74-4.42-2.73,5.1c-.67,1.24-1.77,5.47-3.27,12.57-1.31,6.24-2.39,11.94-3.22,16.92a3.81,3.81,0,0,0-.08,1.67c0,.11.18.43,1.13,1.14,1.94,1.46,2.83,1.68,3.2,1.68.16,0,.54,0,.75-1a54.4,54.4,0,0,1,2.84-10.48,2,2,0,0,0,.2-.73.58.58,0,0,0,0-.28c-.17,0-.35.35-.39.45l-2.13,4-1.48,2.77.33-3.12c1.37-13,4.35-24.08,8.87-32.85,1.24-2.37,2.49-3.52,3.84-3.52a4.34,4.34,0,0,1,.77.08,3.85,3.85,0,0,0,.55.06c.41,0,.51-.08.51-.09l.36-.48-.39.48c-3.44-2.78-4.84-3.19-5.37-3.19a1.59,1.59,0,0,0-1.32.9,36.58,36.58,0,0,0-2.94,5.39l-.09.15c-6.47,7.54-13.86,18.19-22,31.64l-.7,1.16-.41-1.28a146.13,146.13,0,0,0-9.22-21.55l-.12-.24.09-.25c2.58-7.12,3.16-9.54,3.19-10.32,0-1-.22-1.31-.3-1.37a12.61,12.61,0,0,0-1.87-1.29,4.64,4.64,0,0,0-.11,1.19,21.37,21.37,0,0,1-2,8.4l-.46,1-.62-1c-5.25-8-9.5-12.17-12.65-12.28-2.57-.08-5.39,2.89-8.37,8.89a1.06,1.06,0,0,0-.15.45h0a1.53,1.53,0,0,0,1.11-.65c.91-1,1.81-2,2.72-3,1.91-1.77,3.62-2,5.51-.83,4.27,2.5,7.89,7,10.75,13.24l.1.22-.08.23a118.14,118.14,0,0,1-10.56,22.65l-.07.13-.13.08a41.86,41.86,0,0,0-5.23,3.83,1.5,1.5,0,0,0-.41.48,2.52,2.52,0,0,0,.55.6c2,1.71,2.89,2,3.24,2,.12,0,.33,0,.44-.57l0-.14.08-.11a9.25,9.25,0,0,1,6.52-4c1-.13,1.2-.37,1.2-.37,0-.17-.17-.92-2.35-3.36l-.27-.31.18-.37c2.55-5.14,5.1-10.91,7.57-17.16Z"/><path class="cls-2" d="M522,771.56a110,110,0,0,0-4.4,14.84,18.29,18.29,0,0,0,1.37-1.5,14.63,14.63,0,0,1,1.06-1.17,1.34,1.34,0,0,1,1-.63.47.47,0,0,1,.52.52,1.43,1.43,0,0,1-.28.73,28,28,0,0,0-4.33,9.74c-.21.93-.52,1.39-.94,1.39a5.23,5.23,0,0,1-2.18-1.11c-.63-.42-1-.76-1.08-1a3.09,3.09,0,0,1,0-1.53,79,79,0,0,1,3.64-14.63A82.22,82.22,0,0,1,508.18,788a47.66,47.66,0,0,1-6.55,6.59,4.56,4.56,0,0,1-2.22,1,3.86,3.86,0,0,1-1.91-1,3.42,3.42,0,0,1-1.83-3.05,5.63,5.63,0,0,1,.07-.87q.61-5.13,4.5-11.94a48,48,0,0,1,8.91-11.5,4.46,4.46,0,0,1,2.92-1.49q1.24.07,4.75,3.3a.77.77,0,0,1,.31.58c0,.37-.24.56-.73.56a1.5,1.5,0,0,1-.52-.1c-1.64-.7-3-.67-3.95.06q-3.26,2.4-7.21,8.43-4.58,6.93-5.52,12.48a3.64,3.64,0,0,0,0,.45q0,.87.69.87a4.44,4.44,0,0,0,2.81-1.63,92.63,92.63,0,0,0,8.32-9.5,48,48,0,0,0,5.83-9c.62-1.47,1-2.51,1.21-3.12.3-1,.62-1.56,1-1.56a6.74,6.74,0,0,1,2.43,1.43,1.92,1.92,0,0,1,.87,1.07A3.5,3.5,0,0,1,522,771.56Z"/><path class="cls-2" d="M499.41,796.2a4.13,4.13,0,0,1-2.28-1.14,3.94,3.94,0,0,1-2.08-3.53,7,7,0,0,1,.08-1c.42-3.47,2-7.57,4.58-12.16a48.89,48.89,0,0,1,9-11.64,4.8,4.8,0,0,1,3.34-1.65c.71,0,1.91.46,5.15,3.45a1.58,1.58,0,0,1,.25.28c.27-.89.69-1.86,1.52-1.86.38,0,1,.19,2.8,1.54a2.42,2.42,0,0,1,1.1,1.48,3.72,3.72,0,0,1-.34,1.76,125.07,125.07,0,0,0-3.88,12.5c.53-.62.76-.85.88-1a1.91,1.91,0,0,1,1.49-.81,1.06,1.06,0,0,1,1.13,1.13,1.89,1.89,0,0,1-.38,1.07,27.54,27.54,0,0,0-4.24,9.53c-.28,1.25-.8,1.87-1.54,1.87-.37,0-1-.14-2.54-1.22a3,3,0,0,1-1.3-1.35,3.48,3.48,0,0,1,0-1.81,96.44,96.44,0,0,1,2.3-10.53q-2.46,3.41-5.8,7.22a48.08,48.08,0,0,1-6.67,6.68A5,5,0,0,1,499.41,796.2ZM512,766.34a4,4,0,0,0-2.42,1.33A47.59,47.59,0,0,0,500.78,779c-2.54,4.45-4,8.39-4.43,11.71a5,5,0,0,0-.07.8,2.8,2.8,0,0,0,1.54,2.52c1.12.88,1.52.92,1.59.92a3.92,3.92,0,0,0,1.87-.9,47.78,47.78,0,0,0,6.44-6.48,81.89,81.89,0,0,0,8.16-10.74l1.1.54a78.7,78.7,0,0,0-3.61,14.51,3.06,3.06,0,0,0,0,1.18c0,.07.12.29.86.78a5.17,5.17,0,0,0,1.84,1,2.45,2.45,0,0,0,.34-.91,28.75,28.75,0,0,1,4.42-10,1,1,0,0,0,.14-.27,1,1,0,0,0-.43.36l-.09.1a14.16,14.16,0,0,0-1,1.1,19.09,19.09,0,0,1-1.42,1.54l-1.4,1.31.38-1.88a109.49,109.49,0,0,1,4.43-14.92h0a3.15,3.15,0,0,0,.28-1.15s0-.25-.63-.68a9.71,9.71,0,0,0-2-1.28,3.51,3.51,0,0,0-.45,1.09c-.19.64-.61,1.71-1.24,3.19a48.47,48.47,0,0,1-5.9,9.08,92.93,92.93,0,0,1-8.38,9.57,4.92,4.92,0,0,1-3.24,1.8,1.29,1.29,0,0,1-1.3-1.48,3.62,3.62,0,0,1,0-.54c.63-3.77,2.52-8.05,5.6-12.73,2.67-4.06,5.14-7,7.37-8.58,1.17-.87,2.7-.92,4.55-.14a.77.77,0,0,0,.36,0l-.07-.07c-3-2.78-4.07-3.12-4.38-3.14Zm1.74,3.83a2.38,2.38,0,0,0-1.44.46c-2.1,1.54-4.48,4.32-7.06,8.27-3,4.53-4.81,8.65-5.42,12.24a2.16,2.16,0,0,0,0,.35.56.56,0,0,0,0,.27c.46,0,1.22-.27,2.42-1.46a92.74,92.74,0,0,0,8.27-9.45,47.48,47.48,0,0,0,5.74-8.81l.54-1.29a2.1,2.1,0,0,1-1.15-.12A5.07,5.07,0,0,0,513.73,770.17Z"/><path class="cls-2" d="M550.9,770.65q-4.81,22.23-9,33.25-8.19,21.44-18.79,21.43-6.21,0-13.35-6.76a1.69,1.69,0,0,1-.62-1.25c0-.69.32-1,1-1a1.45,1.45,0,0,1,.93.38q5.65,4.83,10.09,4.82,8.14,0,14.81-13.59,5.24-10.64,9.12-28.57c.16-.85.42-2.16.79-3.92a124.29,124.29,0,0,1-8.14,11.69,53.47,53.47,0,0,1-6.84,7.63,4,4,0,0,1-2.21,1.14,2,2,0,0,1-1.36-.73c-.48-.62-1-1.23-1.49-1.83a1.26,1.26,0,0,1-.34-.77v-.07c0-.27.25-.47.62-.59q1.66-2.25,3.12-9.74a105.68,105.68,0,0,0,1.53-11.2c0-.83-.06-1.25-.32-1.25a13.8,13.8,0,0,0-1.63,1.25,16.76,16.76,0,0,1-2.63,2.05.43.43,0,0,1-.49-.49.73.73,0,0,1,.21-.48q.58-.74,2.64-3.64c1.22-1.74,2-2.6,2.46-2.6a3.19,3.19,0,0,1,1.32.41c1.17-.18,1.83-.28,2-.28.79,0,1.18.61,1.18,1.81a76.84,76.84,0,0,1-1.73,11.8q-1.74,8.79-2.85,11.36,3.48-2.75,9-10.75,5.42-7.8,6.73-11.75c0-1.55.38-2.33,1-2.33a6.34,6.34,0,0,1,2.71,1.49C551,768.09,551.22,769.13,550.9,770.65Z"/><path class="cls-2" d="M523.06,826c-4.28,0-8.92-2.34-13.77-6.93a2.35,2.35,0,0,1-.82-1.7,1.49,1.49,0,0,1,1.59-1.65,2,2,0,0,1,1.33.53c3.64,3.1,6.9,4.67,9.69,4.67,5.15,0,9.95-4.46,14.26-13.25,3.45-7,6.5-16.58,9.07-28.43q0-.27.12-.63c-2,3-4.11,6-6.39,8.91a55.38,55.38,0,0,1-6.92,7.72c-2,1.61-3.16,1.68-4.41.37-.52-.67-1-1.27-1.52-1.87a1.86,1.86,0,0,1-.49-1.16v-.17a1.29,1.29,0,0,1,.84-1c1-1.49,2-4.64,2.91-9.36a103.89,103.89,0,0,0,1.51-11.13,2.09,2.09,0,0,0,0-.24l-1,.77c-2.59,2.18-2.74,2.18-3,2.18a1,1,0,0,1-1.1-1.1,1.31,1.31,0,0,1,.36-.88c.36-.46,1.24-1.67,2.59-3.6,1.68-2.37,2.4-2.86,3-2.86a3.39,3.39,0,0,1,1.41.4,17.52,17.52,0,0,1,1.88-.26c.67,0,1.8.31,1.8,2.42s-.58,6-1.75,11.92c-.8,4.07-1.5,7.11-2.1,9.19a69.74,69.74,0,0,0,7.16-9.05c3.52-5.07,5.75-8.94,6.63-11.51,0-.8.14-2.83,1.61-2.83.44,0,1.18.18,3.07,1.61,1,.71,1.24,2,.86,3.74h0c-3.21,14.78-6.26,26-9.08,33.35C536.89,818.6,530.38,826,523.06,826Zm-13-9.05c-.24,0-.36,0-.36.42a1.15,1.15,0,0,0,.43.81c4.62,4.37,9,6.59,12.93,6.59,6.76,0,12.89-7.08,18.22-21,2.79-7.29,5.83-18.45,9-33.17.27-1.26.13-2.1-.39-2.49-1.73-1.31-2.25-1.37-2.34-1.37s-.35.3-.39,1.72l0,.18c-.9,2.68-3.19,6.69-6.81,11.91s-6.79,9-9.14,10.88l-1.9,1.51,1-2.23c.72-1.67,1.66-5.45,2.81-11.24a76.5,76.5,0,0,0,1.72-11.68c0-1.19-.4-1.19-.57-1.19s-.37,0-1.88.27l-.19,0-.18-.09a2.48,2.48,0,0,0-1-.35,9.15,9.15,0,0,0-2,2.34c-1,1.36-1.67,2.36-2.15,3,.36-.29.85-.69,1.53-1.27,1.7-1.39,1.77-1.39,2-1.39a.81.81,0,0,1,.6.26c.28.29.38.78.33,1.64a106.66,106.66,0,0,1-1.54,11.27c-1,5.14-2,8.41-3.23,10l-.11.16-.2.06a.44.44,0,0,0-.2.1,1.36,1.36,0,0,0,.21.34c.51.61,1,1.23,1.51,1.86a1.41,1.41,0,0,0,.87.49c.22,0,.76-.13,1.82-1a53.31,53.31,0,0,0,6.74-7.53,125.06,125.06,0,0,0,8.11-11.63l1.85-3-.73,3.46c-.37,1.75-.63,3.05-.79,3.91-2.59,12-5.68,21.62-9.17,28.72-4.53,9.25-9.7,13.94-15.36,13.94-3.09,0-6.62-1.67-10.49-5A.8.8,0,0,0,510.06,816.9Z"/><path class="cls-2" d="M576.63,772.7a35.65,35.65,0,0,1-1.49,8.18q-2.26,8.05-6.38,12.49a6.53,6.53,0,0,1-4.86,2.35,10.54,10.54,0,0,1-2.67-.45,8.5,8.5,0,0,1-5.3-2,6.24,6.24,0,0,1-2.08-5.17,36.42,36.42,0,0,1,2.53-10.26q2.63-7.18,5.48-10.34c.9-1,1.64-1.52,2.22-1.52q1.17,0,3.81,2.43c.49-.23,1.48-.66,3-1.29a6.18,6.18,0,0,1,1.73-.38c.91,0,1.91.85,3,2.53A5.63,5.63,0,0,1,576.63,772.7Zm-4,1c.16-1.55.24-2.54.24-3,0-1-.3-1.46-.9-1.46a4.05,4.05,0,0,0-.9.14l-5.38,2.19a6.3,6.3,0,0,1-1.07.38c-.19,0-.37-.22-.55-.66a25.21,25.21,0,0,0-3.75,7.11,39.31,39.31,0,0,0-1.87,6.51,18.13,18.13,0,0,0-.38,3.54q0,5.34,3.29,5.2a5.46,5.46,0,0,0,2.84-1q2.92-2,5.45-7.9A37,37,0,0,0,572.64,773.71Z"/><path class="cls-2" d="M563.9,796.34a10.7,10.7,0,0,1-2.77-.46,9.05,9.05,0,0,1-5.61-2.2,6.86,6.86,0,0,1-2.29-5.65,37.69,37.69,0,0,1,2.57-10.44c1.78-4.84,3.66-8.38,5.6-10.54,1-1.17,1.89-1.72,2.68-1.72s2.16.73,3.92,2.31c.56-.25,1.45-.63,2.64-1.12a6.39,6.39,0,0,1,2-.43c1.14,0,2.29.92,3.53,2.81a6.21,6.21,0,0,1,1.11,3.82,36.35,36.35,0,0,1-1.51,8.33c-1.53,5.43-3.72,9.72-6.52,12.73A7.13,7.13,0,0,1,563.9,796.34Zm.18-29.79c-.18,0-.71.13-1.76,1.32-1.84,2-3.64,5.45-5.37,10.14a36.53,36.53,0,0,0-2.49,10.07,5.63,5.63,0,0,0,1.88,4.69,7.89,7.89,0,0,0,4.93,1.89l.13,0a10.1,10.1,0,0,0,2.5.43,5.9,5.9,0,0,0,4.41-2.16c2.67-2.87,4.77-7,6.23-12.23a34.51,34.51,0,0,0,1.47-8h0a5,5,0,0,0-.89-3.1c-1.3-2-2.13-2.26-2.52-2.26a5.37,5.37,0,0,0-1.54.35c-1.43.6-2.43,1-2.91,1.25l-.37.18-.31-.28C565.25,766.77,564.36,766.55,564.08,766.55Zm-2.88,27.78a3.17,3.17,0,0,1-2.29-.87c-1-.93-1.45-2.55-1.45-5a19.16,19.16,0,0,1,.4-3.65,39.12,39.12,0,0,1,1.9-6.62A26,26,0,0,1,563.6,771l.65-.79.39.94a1.69,1.69,0,0,0,.11.23l.72-.28,5.38-2.19a4.49,4.49,0,0,1,1.13-.18c.46,0,1.52.2,1.52,2.07,0,.44-.08,1.42-.25,3a38.12,38.12,0,0,1-3,11.24c-1.75,4.1-3.6,6.77-5.66,8.17a6.16,6.16,0,0,1-3.17,1.15ZM564,772.4a27.2,27.2,0,0,0-3.13,6.27,37.68,37.68,0,0,0-1.85,6.41,18.62,18.62,0,0,0-.37,3.43c0,2,.36,3.39,1.07,4.07a2.08,2.08,0,0,0,1.59.52,5,5,0,0,0,2.53-.94c1.82-1.24,3.58-3.81,5.21-7.63A36.47,36.47,0,0,0,572,773.64h0c.16-1.52.24-2.49.24-2.88s0-.84-.29-.84a3.17,3.17,0,0,0-.75.12l-5.29,2.15a3.9,3.9,0,0,1-1.31.43A.91.91,0,0,1,564,772.4Z"/><path class="cls-2" d="M601,768.57a30.53,30.53,0,0,1-1.21,8.67c-.26.83-.6,1.25-1,1.25s-1-.46-2.15-1.39a1.66,1.66,0,0,1-.42-2,18.17,18.17,0,0,0,1-5.06q0-.66-.27-.66c-.28,0-.73.41-1.36,1.24a66.22,66.22,0,0,0-10.78,21.09c-.76,2.47-1.41,3.71-1.94,3.71a15.11,15.11,0,0,1-2.74-1.22c-.79-.39-1-1.15-.8-2.29a153.21,153.21,0,0,1,5.9-20.25,40.79,40.79,0,0,0-3.26,3.71.88.88,0,0,1-.77.42c-.39,0-.59-.17-.59-.52a1.23,1.23,0,0,1,.28-.69c1.13-1.37,2.65-3.45,4.54-6.24q.87-1.53,1.74-1.53a7.58,7.58,0,0,1,2.53,1c.71.37.83.87.35,1.49s-1.47,3-2.88,7.11-2.27,7.05-2.78,9.29A98.79,98.79,0,0,1,595,767.15c.76-1,1.37-1.52,1.84-1.52a3.13,3.13,0,0,1,1.69.83,4.88,4.88,0,0,1,1.84.45A1.93,1.93,0,0,1,601,768.57Z"/><path class="cls-2" d="M582.8,796.06c-.2,0-.46,0-3-1.28-.74-.37-1.53-1.18-1.13-3a166.88,166.88,0,0,1,4.87-17.44,16.48,16.48,0,0,0-1.13,1.38,1.47,1.47,0,0,1-1.27.68,1.09,1.09,0,0,1-1.2-1.13,1.75,1.75,0,0,1,.4-1c1.14-1.38,2.65-3.47,4.53-6.23.67-1.19,1.41-1.79,2.24-1.79a6.84,6.84,0,0,1,2.81,1,1.63,1.63,0,0,1,.94,1.08,1.57,1.57,0,0,1-.39,1.34c-.32.42-1.06,2-2.78,6.93-.3.87-.57,1.7-.83,2.48a93.05,93.05,0,0,1,7.7-12.3c.91-1.23,1.63-1.78,2.33-1.78a3.47,3.47,0,0,1,1.93.86,4.25,4.25,0,0,1,2,.54,2.49,2.49,0,0,1,.84,2.16,31.43,31.43,0,0,1-1.23,8.85c-.35,1.12-.89,1.68-1.63,1.68-.37,0-.93-.18-2.55-1.53a2.24,2.24,0,0,1-.6-2.63,19.1,19.1,0,0,0,.93-4.56L596,771a65.65,65.65,0,0,0-10.68,20.9C584.27,795.35,583.55,796.06,582.8,796.06Zm4-27-1.1,2.87a153.61,153.61,0,0,0-5.87,20.17c-.28,1.23.25,1.49.47,1.6a25.13,25.13,0,0,0,2.43,1.13c.16-.15.63-.77,1.39-3.26A67,67,0,0,1,595,770.28c.79-1,1.32-1.49,1.84-1.49.26,0,.89.13.89,1.28a19,19,0,0,1-1,5.24c-.26.79,0,1.12.22,1.32a6.26,6.26,0,0,0,1.79,1.25s.21-.14.42-.82a29.93,29.93,0,0,0,1.19-8.49c0-.6-.12-1-.33-1.16a4.25,4.25,0,0,0-1.56-.34l-.17,0-.13-.11c-.82-.63-1.2-.7-1.32-.7s-.4,0-1.35,1.28A98.06,98.06,0,0,0,584.88,786l-1.15-.38c.51-2.25,1.44-5.4,2.79-9.36,1.92-5.55,2.61-6.81,3-7.28a.72.72,0,0,0,.17-.33.75.75,0,0,0-.31-.24,7,7,0,0,0-2.25-.91c-.16,0-.58.12-1.2,1.22q-2.88,4.26-4.61,6.33a1.44,1.44,0,0,0-.11.2.27.27,0,0,0,.21-.13,39,39,0,0,1,3.32-3.8Z"/><path d="M640.77,773.29a42.61,42.61,0,0,1-3.09,12.59q-2.49,6.27-4.92,8.56a4.12,4.12,0,0,1-2.81,1.28q-1.59,0-5.3-2.56c-.49-.33-.73-.66-.73-1s.31-.66.94-.66a3.61,3.61,0,0,1,1.1.25,4,4,0,0,0,1.18.24q2.54,0,4.55-3.23a36,36,0,0,0,3.22-7.45,28.52,28.52,0,0,0,1.6-10c-.07-1.34-.53-2-1.36-2a4.42,4.42,0,0,0-2.7,1.52,58.8,58.8,0,0,0-15.81,25.7,90.72,90.72,0,0,0-3.47,15.74q0,.24-.94,12c-.09,1.13-.36,1.7-.83,1.7s-1.35-.57-2.6-1.7a3.18,3.18,0,0,1-1-3q1.53-17.26,8.36-38.46,5.37-16.56,8.53-21.49,1.88-2.88,3.33-2.81t5.54,2.6c.37.23.56.47.56.73s-.28.52-.83.52a4.51,4.51,0,0,1-.7-.09,4.06,4.06,0,0,0-.73-.08c-1.45,0-3,1.23-4.54,3.7a50.18,50.18,0,0,0-3.5,7.11,76.59,76.59,0,0,0-3,8.22,62,62,0,0,1,11.86-14.28,3,3,0,0,1,1.87-.91,5.89,5.89,0,0,1,1.91,1C639.51,768.12,641,770.22,640.77,773.29Z"/><path d="M611.4,826.57c-.45,0-1.19-.21-3-1.86a3.77,3.77,0,0,1-1.23-3.61c1-11.45,3.83-24.43,8.37-38.53,3.59-11.05,6.48-18.33,8.6-21.64,1.39-2.14,2.66-3.13,3.87-3.09s3,.88,5.85,2.69a1.5,1.5,0,0,1,.84,1.25c0,.26-.1,1.13-1.44,1.13a5.41,5.41,0,0,1-.81-.09,3.86,3.86,0,0,0-.62-.08c-1.22,0-2.57,1.15-4,3.42a48.49,48.49,0,0,0-3.45,7c-.55,1.29-1,2.5-1.47,3.61a61.1,61.1,0,0,1,9.3-10.37,3.54,3.54,0,0,1,2.28-1.06c.27,0,.69.09,2.19,1.1,3.37,1.22,5,3.53,4.73,6.87h0a43.12,43.12,0,0,1-3.13,12.77c-1.71,4.31-3.37,7.18-5.07,8.79a4.79,4.79,0,0,1-3.23,1.45c-1.2,0-3.05-.88-5.65-2.68a1.86,1.86,0,0,1-1-1.51c0-.3.11-1.27,1.55-1.27a4.59,4.59,0,0,1,1.3.27,3.2,3.2,0,0,0,1,.22c1.46,0,2.81-1,4-2.94a36.11,36.11,0,0,0,3.16-7.32,28.17,28.17,0,0,0,1.56-9.8c-.07-1.43-.56-1.43-.74-1.43-.39,0-1.11.24-2.28,1.36a58.4,58.4,0,0,0-15.64,25.43,90.41,90.41,0,0,0-3.45,15.63c0,.1-.11,1.25-.93,12C612.72,825.81,612.24,826.57,611.4,826.57Zm16.52-67.51c-.44,0-1.34.35-2.76,2.53-2.06,3.22-4.91,10.41-8.46,21.35-4.52,14-7.32,26.91-8.33,38.32a2.61,2.61,0,0,0,.85,2.55c1.57,1.42,2.08,1.53,2.17,1.53a3.31,3.31,0,0,0,.23-1.13c.41-5.37.91-11.83.94-12.07a92,92,0,0,1,3.49-15.83,59.6,59.6,0,0,1,16-26,4.89,4.89,0,0,1,3.12-1.7c.69,0,1.85.34,2,2.6a29.44,29.44,0,0,1-1.62,10.23,36.57,36.57,0,0,1-3.29,7.59c-1.46,2.34-3.16,3.52-5.07,3.52a4.55,4.55,0,0,1-1.37-.27,3,3,0,0,0-.91-.21.75.75,0,0,0-.35,0c0,.08.14.26.48.49,2.94,2,4.32,2.46,5,2.46a3.59,3.59,0,0,0,2.39-1.12c1.55-1.45,3.15-4.26,4.77-8.34a42,42,0,0,0,3-12.4c.19-2.79-1.12-4.64-4-5.66l-.14-.07a6.72,6.72,0,0,0-1.6-.94,2.69,2.69,0,0,0-1.43.76,61.67,61.67,0,0,0-11.74,14.14l-2.38,3.9,1.27-4.39a79.94,79.94,0,0,1,3.07-8.29,50.63,50.63,0,0,1,3.56-7.2c1.7-2.68,3.36-4,5.05-4a4.82,4.82,0,0,1,.84.1,3.34,3.34,0,0,0,.69.07l-.15-.11c-3.27-2.05-4.65-2.49-5.24-2.51Z"/><path d="M661.5,784.77q-8.41,10.77-11.85,10.78-1.64,0-4.13-2.25c-1.73-.81-2.6-1.9-2.6-3.26a4.48,4.48,0,0,1,.07-.8,57.27,57.27,0,0,1,2.53-10.51c-.86-.44-1.28-.85-1.28-1.24s.24-.49.73-.49a2.42,2.42,0,0,1,1.14.31,44,44,0,0,1,5.55-9.85c1.06-1.29,2-1.94,2.87-1.94a11.19,11.19,0,0,1,2.92,1c-.12-.7.08-1.1.59-1.21h1.63c1,0,1.49.17,1.49.51a5,5,0,0,1-.11.6,4.2,4.2,0,0,0-.1.9c0,.83,0,1.86,0,3.08s0,2.05,0,2.46q0,4.3-2.36,6a8,8,0,0,1-4.85,1.56,24,24,0,0,1-4.72-.76,19.49,19.49,0,0,0-1.32,4.2,27.74,27.74,0,0,0-.9,7c0,1.2.41,1.8,1.15,1.8a3.74,3.74,0,0,0,1.07-.21q4-1.41,11.2-8.66a1.31,1.31,0,0,1,.9-.46q.66,0,.66.63A1.25,1.25,0,0,1,661.5,784.77Zm-4-15.33c0-.9-.2-1.35-.59-1.35a2.13,2.13,0,0,0-1.11.55q-3.4,2.75-6,9.61c.46.07,1.27.14,2.42.21a5.4,5.4,0,0,0,4.2-1.29,5,5,0,0,0,1.14-3.43Q657.45,775.51,657.45,769.44Z"/><path d="M649.65,796.16c-1.24,0-2.7-.77-4.47-2.35-1.91-.91-2.87-2.18-2.87-3.77a5.54,5.54,0,0,1,.07-.9,58,58,0,0,1,2.4-10.12,2,2,0,0,1-1.16-1.53c0-.54.36-1.1,1.35-1.1a2.65,2.65,0,0,1,.82.13,42.49,42.49,0,0,1,5.4-9.45c1.19-1.45,2.28-2.16,3.34-2.16a7,7,0,0,1,2.35.72,1.37,1.37,0,0,1,1-.91l.14,0h1.63c.52,0,2.1,0,2.1,1.13a3.86,3.86,0,0,1-.12.72,3.74,3.74,0,0,0-.09.78c0,.83,0,1.85,0,3.07s0,2.06,0,2.47c0,3.06-.88,5.25-2.61,6.5a8.71,8.71,0,0,1-5.21,1.68,22.44,22.44,0,0,1-4.38-.67,25.28,25.28,0,0,0-1.06,3.62,26.71,26.71,0,0,0-.88,6.85c0,1.21.39,1.21.53,1.21a3.1,3.1,0,0,0,.89-.18c2.56-.91,6.25-3.77,10.94-8.52a1.89,1.89,0,0,1,1.34-.63,1.17,1.17,0,0,1,1.27,1.24,1.85,1.85,0,0,1-.48,1.18C656.11,792.67,652.19,796.16,649.65,796.16ZM645,777.61a3.12,3.12,0,0,0,.85.58l.47.24-.17.5a57.6,57.6,0,0,0-2.5,10.39,3.73,3.73,0,0,0-.07.72c0,1.11.74,2,2.25,2.7l.15.1c1.92,1.73,3.08,2.1,3.72,2.1,1.43,0,4.56-1.83,11.37-10.55v0a.7.7,0,0,0,.21-.4s0,0,0,0a.84.84,0,0,0-.47.27c-4.89,4.94-8.63,7.82-11.42,8.81a4.3,4.3,0,0,1-1.28.25c-.64,0-1.72-.32-1.76-2.41a27.7,27.7,0,0,1,.92-7.16,19.44,19.44,0,0,1,1.37-4.34l.23-.41.45.1a23.47,23.47,0,0,0,4.58.75,7.54,7.54,0,0,0,4.49-1.44c1.4-1,2.11-2.86,2.11-5.51,0-.41,0-1.23,0-2.45s0-2.26,0-3.09a5.58,5.58,0,0,1,.11-1,2.15,2.15,0,0,0,.06-.29,3.8,3.8,0,0,0-.84-.07h-1.55c-.07,0-.13.12-.07.5l.19,1.11-1-.45a10.27,10.27,0,0,0-2.68-1c-.65,0-1.48.59-2.4,1.71a43.26,43.26,0,0,0-5.46,9.71l-.27.6-.58-.31a1.84,1.84,0,0,0-.85-.24Zm7.64,1.47h-.4c-1.2-.07-2-.14-2.5-.22l-.74-.11.26-.71c1.74-4.65,3.81-8,6.15-9.86a2.58,2.58,0,0,1,1.5-.69c.55,0,1.2.34,1.2,2,0,2.75,0,3.87,0,4.32h.07a5.65,5.65,0,0,1-1.32,3.84A5.79,5.79,0,0,1,652.59,779.08Zm-2-1.35c.43,0,1,.07,1.61.11a4.87,4.87,0,0,0,3.72-1.1,4.21,4.21,0,0,0,.95-2.67c-.09-.66-.09-2-.09-4.63a2.72,2.72,0,0,0-.07-.71,3.29,3.29,0,0,0-.64.4C654.08,770.77,652.24,773.67,650.64,777.73Z"/><path d="M686.16,768.57a30.53,30.53,0,0,1-1.22,8.67c-.25.83-.6,1.25-1,1.25a5.56,5.56,0,0,1-2.15-1.39,1.67,1.67,0,0,1-.41-2,18.54,18.54,0,0,0,1-5.06c0-.44-.1-.66-.28-.66s-.73.41-1.35,1.24a66,66,0,0,0-10.79,21.09c-.76,2.47-1.41,3.71-1.94,3.71a15.11,15.11,0,0,1-2.74-1.22c-.78-.39-1.05-1.15-.79-2.29a153.34,153.34,0,0,1,5.89-20.25,40.79,40.79,0,0,0-3.26,3.71.86.86,0,0,1-.76.42c-.39,0-.59-.17-.59-.52a1.17,1.17,0,0,1,.28-.69q1.69-2.05,4.54-6.24c.58-1,1.15-1.53,1.73-1.53a7.5,7.5,0,0,1,2.53,1c.72.37.83.87.35,1.49s-1.47,3-2.88,7.11-2.26,7.05-2.77,9.29a98.23,98.23,0,0,1,10.71-18.55c.76-1,1.38-1.52,1.84-1.52a3.15,3.15,0,0,1,1.7.83,4.94,4.94,0,0,1,1.84.45A1.93,1.93,0,0,1,686.16,768.57Z"/><path d="M668,796.06c-.2,0-.45,0-3-1.28-.73-.37-1.53-1.18-1.12-3a167,167,0,0,1,4.86-17.44c-.52.6-.9,1.06-1.12,1.38a1.49,1.49,0,0,1-1.27.68,1.09,1.09,0,0,1-1.2-1.13,1.8,1.8,0,0,1,.39-1c1.14-1.38,2.66-3.47,4.53-6.23.68-1.19,1.42-1.79,2.24-1.79a6.84,6.84,0,0,1,2.81,1,1.68,1.68,0,0,1,1,1.08,1.61,1.61,0,0,1-.4,1.34c-.31.42-1.06,2-2.78,6.93-.29.87-.57,1.7-.82,2.48a93,93,0,0,1,7.69-12.3c.92-1.23,1.64-1.78,2.33-1.78a3.46,3.46,0,0,1,1.94.86,4.36,4.36,0,0,1,2,.54,2.52,2.52,0,0,1,.84,2.16,31.44,31.44,0,0,1-1.24,8.85c-.34,1.12-.89,1.68-1.63,1.68-.37,0-.93-.18-2.54-1.53a2.23,2.23,0,0,1-.61-2.63,19.2,19.2,0,0,0,.94-4.56,8.06,8.06,0,0,0-.52.64,65.67,65.67,0,0,0-10.69,20.9C669.42,795.35,668.7,796.06,668,796.06Zm4-27-1.1,2.87A155.17,155.17,0,0,0,665,792.08c-.27,1.23.25,1.49.48,1.6a25.76,25.76,0,0,0,2.42,1.13c.16-.15.63-.77,1.4-3.26a67,67,0,0,1,10.88-21.27c.79-1,1.33-1.49,1.84-1.49.27,0,.89.13.89,1.28a19,19,0,0,1-1,5.24c-.25.79,0,1.12.22,1.32a6.26,6.26,0,0,0,1.79,1.25s.22-.14.42-.82a29.93,29.93,0,0,0,1.19-8.49c0-.6-.12-1-.33-1.16a4.12,4.12,0,0,0-1.55-.34l-.17,0-.14-.11c-.82-.63-1.2-.7-1.32-.7s-.4,0-1.35,1.28A98,98,0,0,0,670,786l-1.16-.38c.51-2.25,1.45-5.4,2.79-9.36,1.92-5.55,2.62-6.81,3-7.28a.72.72,0,0,0,.17-.33.67.67,0,0,0-.31-.24,6.9,6.9,0,0,0-2.25-.91c-.15,0-.58.12-1.2,1.22-1.92,2.84-3.46,5-4.6,6.33a.83.83,0,0,0-.11.2.27.27,0,0,0,.2-.13,39.6,39.6,0,0,1,3.33-3.8Z"/><path d="M708.8,772.7a35.65,35.65,0,0,1-1.49,8.18q-2.26,8.05-6.38,12.49a6.53,6.53,0,0,1-4.86,2.35,10.54,10.54,0,0,1-2.67-.45,8.5,8.5,0,0,1-5.3-2,6.27,6.27,0,0,1-2.08-5.17,36.42,36.42,0,0,1,2.53-10.26q2.64-7.18,5.48-10.34c.9-1,1.64-1.52,2.22-1.52q1.17,0,3.81,2.43c.49-.23,1.48-.66,3-1.29a6.18,6.18,0,0,1,1.73-.38c.91,0,1.91.85,3,2.53A5.63,5.63,0,0,1,708.8,772.7Zm-4,1c.16-1.55.24-2.54.24-3,0-1-.3-1.46-.9-1.46a4.05,4.05,0,0,0-.9.14l-5.37,2.19a6.57,6.57,0,0,1-1.08.38c-.18,0-.37-.22-.55-.66a25.47,25.47,0,0,0-3.75,7.11,39.31,39.31,0,0,0-1.87,6.51,18.13,18.13,0,0,0-.38,3.54q0,5.34,3.29,5.2a5.46,5.46,0,0,0,2.84-1q2.93-2,5.45-7.9A37,37,0,0,0,704.81,773.71Z"/><path d="M696.07,796.34a10.7,10.7,0,0,1-2.77-.46,9.11,9.11,0,0,1-5.61-2.2A6.86,6.86,0,0,1,685.4,788,37.69,37.69,0,0,1,688,777.59c1.78-4.84,3.66-8.38,5.6-10.54,1-1.17,1.9-1.72,2.68-1.72s2.16.73,3.92,2.31c.57-.25,1.45-.63,2.64-1.12a6.38,6.38,0,0,1,2-.43c1.13,0,2.28.92,3.52,2.81a6.21,6.21,0,0,1,1.11,3.82,36.35,36.35,0,0,1-1.51,8.33c-1.53,5.43-3.72,9.72-6.52,12.73A7.13,7.13,0,0,1,696.07,796.34Zm.18-29.79c-.18,0-.71.13-1.76,1.32-1.84,2-3.65,5.45-5.36,10.14a36.26,36.26,0,0,0-2.5,10.07,5.63,5.63,0,0,0,1.88,4.69,7.89,7.89,0,0,0,4.93,1.89l.13,0a10.17,10.17,0,0,0,2.5.43,5.9,5.9,0,0,0,4.41-2.16c2.67-2.87,4.77-7,6.24-12.23a34.84,34.84,0,0,0,1.46-8h0a4.94,4.94,0,0,0-.89-3.1c-1.3-2-2.13-2.26-2.51-2.26a5.24,5.24,0,0,0-1.54.35c-1.44.59-2.44,1-2.92,1.25l-.37.18-.31-.28C697.42,766.77,696.53,766.55,696.25,766.55Zm-2.88,27.78a3.19,3.19,0,0,1-2.29-.87c-1-.93-1.45-2.55-1.45-5a19.16,19.16,0,0,1,.4-3.65,39.65,39.65,0,0,1,1.9-6.62,25.91,25.91,0,0,1,3.84-7.28l.65-.79.39.94c.05.1.08.18.11.23l.72-.28,5.38-2.19a4.56,4.56,0,0,1,1.13-.18c.46,0,1.52.2,1.52,2.07,0,.44-.08,1.42-.25,3a37.82,37.82,0,0,1-3,11.24c-1.75,4.1-3.6,6.77-5.66,8.17a6.16,6.16,0,0,1-3.17,1.15Zm2.85-21.93a26.79,26.79,0,0,0-3.14,6.27,38.21,38.21,0,0,0-1.85,6.41,18.62,18.62,0,0,0-.37,3.43c0,2,.36,3.39,1.07,4.07a2.08,2.08,0,0,0,1.59.52,5,5,0,0,0,2.53-.94c1.82-1.24,3.58-3.81,5.21-7.63a36.47,36.47,0,0,0,2.94-10.89h0c.16-1.52.24-2.49.24-2.88s-.05-.84-.29-.84a3.17,3.17,0,0,0-.75.12l-5.29,2.15a3.9,3.9,0,0,1-1.31.43A.88.88,0,0,1,696.22,772.4Z"/><path d="M748.22,771.56a108.81,108.81,0,0,0-4.41,14.84,16.63,16.63,0,0,0,1.37-1.5,14.63,14.63,0,0,1,1.06-1.17,1.35,1.35,0,0,1,1-.63.46.46,0,0,1,.52.52,1.35,1.35,0,0,1-.28.73,28.2,28.2,0,0,0-4.33,9.74c-.21.93-.52,1.39-.94,1.39a5.23,5.23,0,0,1-2.18-1.11c-.62-.42-1-.76-1.07-1a3.09,3.09,0,0,1,0-1.53,79,79,0,0,1,3.64-14.63A82.22,82.22,0,0,1,734.42,788a48.24,48.24,0,0,1-6.55,6.59,4.59,4.59,0,0,1-2.22,1,3.79,3.79,0,0,1-1.91-1,3.43,3.43,0,0,1-1.84-3.05,7.23,7.23,0,0,1,.07-.87q.63-5.13,4.51-11.94a48,48,0,0,1,8.91-11.5,4.46,4.46,0,0,1,2.91-1.49c.83,0,2.42,1.15,4.75,3.3a.77.77,0,0,1,.31.58c0,.37-.24.56-.72.56a1.46,1.46,0,0,1-.52-.1c-1.65-.7-3-.67-4,.06q-3.25,2.4-7.21,8.43-4.58,6.93-5.51,12.48a3.75,3.75,0,0,0,0,.45c0,.58.24.87.7.87a4.47,4.47,0,0,0,2.81-1.63,93.86,93.86,0,0,0,8.32-9.5,47.25,47.25,0,0,0,5.82-9c.63-1.47,1-2.51,1.22-3.12.3-1,.62-1.56,1-1.56a6.82,6.82,0,0,1,2.42,1.43,1.88,1.88,0,0,1,.87,1.07A3.44,3.44,0,0,1,748.22,771.56Z"/><path d="M725.65,796.2a4.18,4.18,0,0,1-2.29-1.14,4,4,0,0,1-2.07-3.53,6.88,6.88,0,0,1,.07-1c.43-3.47,2-7.57,4.59-12.16a48.86,48.86,0,0,1,9-11.64,5,5,0,0,1,3.35-1.65c.65,0,1.86.43,5.15,3.45a3,3,0,0,1,.25.28c.27-.89.69-1.86,1.52-1.86.37,0,1,.19,2.79,1.54a2.46,2.46,0,0,1,1.11,1.48,3.76,3.76,0,0,1-.35,1.76,122.93,122.93,0,0,0-3.87,12.5c.53-.62.75-.85.87-1a1.91,1.91,0,0,1,1.49-.81,1.06,1.06,0,0,1,1.14,1.13,1.91,1.91,0,0,1-.39,1.07,27.81,27.81,0,0,0-4.24,9.53c-.28,1.25-.8,1.87-1.54,1.87-.36,0-1-.14-2.53-1.22a3,3,0,0,1-1.31-1.35,3.51,3.51,0,0,1,0-1.81,96.58,96.58,0,0,1,2.29-10.53q-2.46,3.41-5.8,7.22a48.77,48.77,0,0,1-6.66,6.68A5,5,0,0,1,725.65,796.2Zm12.58-29.86a4,4,0,0,0-2.42,1.33A47.87,47.87,0,0,0,727,779c-2.53,4.45-4,8.39-4.43,11.71a6.3,6.3,0,0,0-.06.8,2.8,2.8,0,0,0,1.54,2.52c1.12.88,1.52.92,1.59.92a4,4,0,0,0,1.87-.9,47.78,47.78,0,0,0,6.44-6.48,82.39,82.39,0,0,0,8.15-10.74l1.1.54a79.51,79.51,0,0,0-3.61,14.51,3.06,3.06,0,0,0-.05,1.18c0,.06.12.29.86.78a5.17,5.17,0,0,0,1.84,1,2.45,2.45,0,0,0,.34-.91A28.78,28.78,0,0,1,747,784a2.41,2.41,0,0,0,.14-.27.93.93,0,0,0-.43.36l-.1.1a14.32,14.32,0,0,0-1,1.1,16.06,16.06,0,0,1-1.42,1.54l-1.4,1.3.38-1.87a109.49,109.49,0,0,1,4.43-14.92h0a3,3,0,0,0,.29-1.14s0-.25-.63-.68a9.71,9.71,0,0,0-2-1.28,3.51,3.51,0,0,0-.45,1.09c-.2.64-.62,1.71-1.24,3.19a48.13,48.13,0,0,1-5.91,9.08,91.75,91.75,0,0,1-8.38,9.57,4.93,4.93,0,0,1-3.23,1.8,1.3,1.3,0,0,1-1.31-1.48,3.62,3.62,0,0,1,0-.54c.64-3.77,2.52-8.05,5.61-12.73,2.66-4.06,5.14-7,7.36-8.58,1.17-.87,2.71-.92,4.55-.14a.78.78,0,0,0,.36,0l-.07-.07c-3-2.78-4.06-3.12-4.37-3.14Zm1.74,3.83a2.36,2.36,0,0,0-1.44.46c-2.11,1.54-4.48,4.33-7.06,8.27-3,4.53-4.82,8.65-5.43,12.24,0,.12,0,.24,0,.35a.56.56,0,0,0,0,.27c.46,0,1.21-.27,2.41-1.46a92.74,92.74,0,0,0,8.27-9.45,47.67,47.67,0,0,0,5.75-8.81c.2-.47.38-.91.53-1.29a2.2,2.2,0,0,1-1.15-.12A5,5,0,0,0,740,770.17Zm2.86-.64Z"/><path d="M779.36,740.84a.94.94,0,0,1,.45.72c0,.44-.27.66-.8.66a1.61,1.61,0,0,1-.73-.2,6,6,0,0,0-2.39-.8c-1.46,0-3,1.41-4.79,4.23q-9.42,15.36-13.42,39.7c-.06.44-.18,1-.34,1.77.53-.56,1.32-1.46,2.36-2.71.6-.71,1-1.07,1.31-1.07.6,0,.65.36.14,1.07a26.69,26.69,0,0,0-4.4,9.95c-.26.86-.58,1.29-1,1.29a1.42,1.42,0,0,1-.73-.32c-1.18-.78-1.85-1.25-2-1.38a2.47,2.47,0,0,1-.69-1.81,6.19,6.19,0,0,1,.17-1.35q4-22.08,10.37-37.62,4.79-11.72,8.56-15.18a2.94,2.94,0,0,1,2.08-.94A4.72,4.72,0,0,1,776,738Q777.66,739.41,779.36,740.84Z"/><path d="M755.78,796.06a1.93,1.93,0,0,1-1.08-.42,23.87,23.87,0,0,1-2.06-1.43,3,3,0,0,1-.91-2.27,6.88,6.88,0,0,1,.19-1.48c2.67-14.68,6.17-27.37,10.4-37.72,3.25-8,6.1-13,8.71-15.41a3.56,3.56,0,0,1,2.52-1.09,5.15,5.15,0,0,1,2.78,1.3c1.15.94,2.28,1.87,3.41,2.82a1.53,1.53,0,0,1,.68,1.21,1.25,1.25,0,0,1-1.41,1.27,2.08,2.08,0,0,1-1-.29,5.52,5.52,0,0,0-2.1-.72c-1.21,0-2.68,1.36-4.26,3.94-6.17,10-10.63,23.19-13.27,39.08l.86-1c.78-.92,1.29-1.3,1.79-1.3a1,1,0,0,1,1,.51c.27.53-.08,1.13-.37,1.54a26.35,26.35,0,0,0-4.3,9.72C757.21,794.76,756.83,796.06,755.78,796.06Zm17.68-58.6a2.41,2.41,0,0,0-1.59.77c-2.45,2.25-5.28,7.28-8.42,15-4.19,10.27-7.67,22.89-10.33,37.5a6.07,6.07,0,0,0-.16,1.24,1.84,1.84,0,0,0,.51,1.37s.32.25,1.92,1.31a1.25,1.25,0,0,0,.39.21,2.09,2.09,0,0,0,.38-.84,26.71,26.71,0,0,1,3.89-9.24c-1,1.17-1.75,2-2.27,2.59l-1.51,1.58.47-2.13c.16-.73.27-1.31.34-1.74,2.66-16.23,7.2-29.66,13.5-39.92,1.87-3,3.61-4.53,5.31-4.53a6.61,6.61,0,0,1,2.66.87.82.82,0,0,0,.67.11,1,1,0,0,0-.24-.26h0c-1.13-.95-2.26-1.88-3.39-2.81a4.08,4.08,0,0,0-2.06-1Z"/><path class="cls-2" d="M824.36,757.44a64.59,64.59,0,0,1-5.2,17.38,72.74,72.74,0,0,1-8.32,14.54q-4.58,6-7.35,6.09-3.43,0-9.78-4.27a1,1,0,0,1-.49-.8q0-1.11,1.29-1.11a1.48,1.48,0,0,1,.69.18,12,12,0,0,0,5.76,1.8q4.32.21,11.09-12.72,6.69-12.76,7.77-22.78.34-3.22-3.47-4.79a3.63,3.63,0,0,0-1.56-.28,32.82,32.82,0,0,0-12.93,4.86q-3.27,7.77-6.59,18.37A185.41,185.41,0,0,0,790,794c-.23,1.16-.72,1.74-1.46,1.74a2.53,2.53,0,0,1-1-.24,10.08,10.08,0,0,1-2.36-1.53,3.06,3.06,0,0,1-.76-2.18,31.31,31.31,0,0,1,.94-7c.16-.67.4-1,.73-1a7.22,7.22,0,0,1,2.39,1.6q4.71-16.07,8.94-27.5a60,60,0,0,0-11.92,9.36,3.61,3.61,0,0,0-1,2.5,6.49,6.49,0,0,0,.83,2.91,9.44,9.44,0,0,1,.83,1.87c0,.4-.27.59-.8.59a1.32,1.32,0,0,1-1-.38c-2.89-3.4-4.33-5.74-4.33-7s.92-2.87,2.77-4.54q5.86-5.31,17-11.72c1.23-2.86,2.12-4.3,2.67-4.3s1.27.63,2.57,1.87l3.81-1.73a6.93,6.93,0,0,1,2.6-.69,9,9,0,0,1,4.47,1.87.65.65,0,0,1,.45-.14c1.3,0,3.27,1.2,5.93,3.61a5.75,5.75,0,0,1,2.15,4.26A9,9,0,0,1,824.36,757.44Z"/><path class="cls-2" d="M788.54,796.3a3,3,0,0,1-1.21-.29,10,10,0,0,1-2.56-1.67,3.6,3.6,0,0,1-.93-2.6,32.44,32.44,0,0,1,.95-7.11c.24-1,.68-1.48,1.33-1.48.29,0,.7.1,2.06,1.15,2.81-9.51,5.52-17.88,8.07-24.94A55.68,55.68,0,0,0,786,767.64a3,3,0,0,0-.81,2.08,6.06,6.06,0,0,0,.76,2.63c.84,1.63.9,1.93.9,2.15,0,.58-.37,1.21-1.41,1.21a1.91,1.91,0,0,1-1.49-.59c-3.07-3.6-4.49-6-4.49-7.45s1-3.19,3-5A102.43,102.43,0,0,1,799.33,751c1.61-3.73,2.4-4.48,3.15-4.48.43,0,1,.22,2.69,1.75l3.44-1.56a7.53,7.53,0,0,1,2.85-.75,9,9,0,0,1,4.52,1.79,1.29,1.29,0,0,1,.4-.05c1.47,0,3.54,1.23,6.35,3.76a6.4,6.4,0,0,1,2.35,4.72,10.3,10.3,0,0,1-.11,1.37,65.37,65.37,0,0,1-5.25,17.53,73.76,73.76,0,0,1-8.39,14.67c-3.2,4.23-5.77,6.3-7.84,6.33-2.44,0-5.75-1.43-10.12-4.37a1.58,1.58,0,0,1-.76-1.31,1.67,1.67,0,0,1,1.9-1.72,2.1,2.1,0,0,1,1,.24,11.5,11.5,0,0,0,5.52,1.74h.11c1.81,0,5.07-2.2,10.41-12.4,4.4-8.4,7-16,7.7-22.56.2-1.86-.81-3.22-3.09-4.15a3.07,3.07,0,0,0-1.26-.24A32.24,32.24,0,0,0,802.35,756c-2.13,5.1-4.32,11.2-6.5,18.15a188.19,188.19,0,0,0-5.25,20C790.23,795.92,789.28,796.3,788.54,796.3Zm-2.38-11.89a2,2,0,0,0-.18.5,31.76,31.76,0,0,0-.91,6.83,2.43,2.43,0,0,0,.59,1.76,8.92,8.92,0,0,0,2.19,1.4,1.9,1.9,0,0,0,.69.18c.15,0,.61,0,.86-1.25a187,187,0,0,1,5.28-20.1c2.22-7.06,4.44-13.26,6.61-18.43l.08-.18.16-.1a33.37,33.37,0,0,1,13.18-4.94,4.14,4.14,0,0,1,1.85.3c2.84,1.16,4.13,3,3.87,5.43-.72,6.73-3.36,14.46-7.84,23-4.67,8.94-8.52,13.18-11.66,13.05a12.64,12.64,0,0,1-6.06-1.89.8.8,0,0,0-.36-.08c-.67,0-.67.24-.67.49,0,0,0,.14.23.3,4.09,2.75,7.26,4.15,9.42,4.15,1.12,0,3.23-1,6.86-5.84a72.31,72.31,0,0,0,8.25-14.42,64.53,64.53,0,0,0,5.15-17.21h0a8,8,0,0,0,.1-1.2,5.15,5.15,0,0,0-2-3.81c-3.15-2.85-4.74-3.45-5.52-3.45l-.35.36-.44-.32a8.58,8.58,0,0,0-4.13-1.77,6.58,6.58,0,0,0-2.36.64l-4.18,1.91-.3-.29c-1.64-1.59-2.11-1.7-2.16-1.71s-.6.46-2.08,3.93l-.09.19-.17.1a101.63,101.63,0,0,0-16.89,11.65c-1.7,1.53-2.57,2.91-2.57,4.08,0,.79.73,2.58,4.19,6.64,0,0,.15.17.57.17h.16a15.34,15.34,0,0,0-.74-1.56,7.12,7.12,0,0,1-.9-3.19,4.23,4.23,0,0,1,1.13-2.91,60.61,60.61,0,0,1,12.06-9.47l1.52-1-.62,1.69c-2.8,7.59-5.81,16.82-8.93,27.46l-.27.89-.71-.59A11.86,11.86,0,0,0,786.16,784.41Z"/><path class="cls-2" d="M841.49,784.77q-8.43,10.77-11.86,10.78c-1.09,0-2.46-.75-4.13-2.25-1.73-.81-2.6-1.9-2.6-3.26a5.65,5.65,0,0,1,.07-.8,58.1,58.1,0,0,1,2.53-10.51c-.85-.44-1.28-.85-1.28-1.24s.24-.49.73-.49a2.39,2.39,0,0,1,1.14.31,44,44,0,0,1,5.55-9.85c1.06-1.29,2-1.94,2.88-1.94a11.29,11.29,0,0,1,2.91,1c-.11-.7.08-1.1.59-1.21h1.63c1,0,1.49.17,1.49.51a4.18,4.18,0,0,1-.1.6,4.25,4.25,0,0,0-.11.9c0,.83,0,1.86,0,3.08s0,2.05,0,2.46c0,2.87-.78,4.87-2.36,6a8,8,0,0,1-4.85,1.56,23.82,23.82,0,0,1-4.71-.76,18.39,18.39,0,0,0-1.32,4.2,26.85,26.85,0,0,0-.9,7q0,1.8,1.14,1.8a3.74,3.74,0,0,0,1.08-.21q4-1.41,11.19-8.66a1.31,1.31,0,0,1,.91-.46.57.57,0,0,1,.65.63A1.28,1.28,0,0,1,841.49,784.77Zm-4.06-15.33c0-.9-.2-1.35-.59-1.35a2.2,2.2,0,0,0-1.11.55q-3.39,2.75-6,9.61.69.11,2.43.21a5.37,5.37,0,0,0,4.19-1.29,5,5,0,0,0,1.14-3.43C837.47,774.92,837.43,773.49,837.43,769.44Z"/><path class="cls-2" d="M829.63,796.16c-1.24,0-2.7-.77-4.47-2.35-1.9-.91-2.87-2.18-2.87-3.77a5.57,5.57,0,0,1,.08-.9A57.89,57.89,0,0,1,824.76,779a2,2,0,0,1-1.15-1.53c0-.54.35-1.1,1.34-1.1a2.71,2.71,0,0,1,.83.13,42.53,42.53,0,0,1,5.39-9.45c1.19-1.45,2.29-2.16,3.35-2.16a7.13,7.13,0,0,1,2.35.71,1.35,1.35,0,0,1,1-.9l.14,0h1.63c.52,0,2.1,0,2.1,1.13a3.32,3.32,0,0,1-.11.72,3.74,3.74,0,0,0-.09.78c0,.83,0,1.85,0,3.07s0,2.06,0,2.47c0,3.06-.88,5.25-2.62,6.5a8.69,8.69,0,0,1-5.21,1.68,22.37,22.37,0,0,1-4.37-.67,23.78,23.78,0,0,0-1.07,3.62,26.68,26.68,0,0,0-.88,6.86c0,1.2.39,1.2.53,1.2a3,3,0,0,0,.89-.18c2.56-.91,6.25-3.77,11-8.52a1.89,1.89,0,0,1,1.34-.63,1.18,1.18,0,0,1,1.27,1.24,1.81,1.81,0,0,1-.49,1.18C836.09,792.67,832.17,796.16,829.63,796.16Zm-4.7-18.55a3.12,3.12,0,0,0,.85.58l.47.24-.16.5a56.86,56.86,0,0,0-2.51,10.39,4.66,4.66,0,0,0-.06.72c0,1.11.73,2,2.24,2.7l.16.1c1.91,1.73,3.07,2.1,3.71,2.1,1.43,0,4.56-1.83,11.37-10.55l0,0a.74.74,0,0,0,.2-.4s0,0,0,0a.78.78,0,0,0-.47.27c-4.9,4.94-8.64,7.83-11.43,8.81a4.25,4.25,0,0,1-1.28.25c-.64,0-1.72-.32-1.76-2.41a28.14,28.14,0,0,1,.92-7.16,18.79,18.79,0,0,1,1.38-4.34l.22-.41.45.1a23.7,23.7,0,0,0,4.58.75,7.54,7.54,0,0,0,4.49-1.44c1.4-1,2.11-2.86,2.11-5.51,0-.41,0-1.23,0-2.45s0-2.26,0-3.09a4.89,4.89,0,0,1,.12-1c0-.11,0-.21.06-.29a3.92,3.92,0,0,0-.85-.07h-1.54c-.07,0-.14.12-.07.5l.18,1.11-1-.45a10.31,10.31,0,0,0-2.67-1c-.65,0-1.48.59-2.4,1.71-1.61,1.9-3.44,5.16-5.47,9.71l-.26.6-.58-.31A1.77,1.77,0,0,0,824.93,777.61Zm7.64,1.47h-.4c-1.2-.07-2-.14-2.49-.22l-.75-.11.26-.71c1.74-4.65,3.81-8,6.16-9.86a2.56,2.56,0,0,1,1.49-.69c.55,0,1.2.34,1.2,2,0,2.75,0,3.88,0,4.32h.07a5.65,5.65,0,0,1-1.33,3.84A5.79,5.79,0,0,1,832.57,779.08Zm-1.94-1.35c.42,0,1,.07,1.6.11a4.89,4.89,0,0,0,3.73-1.1,4.18,4.18,0,0,0,.94-2.67c-.08-.66-.08-2-.08-4.63a2.21,2.21,0,0,0-.08-.71,3.63,3.63,0,0,0-.64.4C834.07,770.77,832.22,773.67,830.63,777.73Z"/><path class="cls-2" d="M863.85,750.41c.65.34,1,.74,1,1.18s-.22.45-.66.45a2.48,2.48,0,0,1-.43-.06,3.52,3.52,0,0,0-.43-.05c-.88,0-1.95,1-3.19,2.88q-1.67,2.57-4.61,11.16c-.19.51-.26.81-.21.91s.37.25.9.27a32.24,32.24,0,0,0,5.48-.14c.78-.07,1.18.27,1.18,1,0,.51-.31.82-.91.94s-3,.27-7.66.62a98.41,98.41,0,0,0-5.06,20.59c0,.31,0,.57,0,.8,0,.79.2,1.18.59,1.18.63,0,2.51-1.51,5.66-4.54a1.57,1.57,0,0,1,1.07-.56.51.51,0,0,1,.56.39,1.22,1.22,0,0,1-.32,1,54.65,54.65,0,0,1-5.51,6.31,3.19,3.19,0,0,1-1.91,1.07,4.78,4.78,0,0,1-2.35-1.21c-1.32-.35-2-1-2-2.08a2.44,2.44,0,0,1,.07-.56,169.06,169.06,0,0,1,5-22c-1.23-.16-2.34-.33-3.33-.49a.74.74,0,0,1-.66-.83.88.88,0,0,1,.69-1c.46-.12,1.32-.37,2.57-.76a11.21,11.21,0,0,0,2.22-1q3.7-11.48,5.82-14.87c.81-1.29,1.68-1.94,2.6-1.94A9.07,9.07,0,0,1,863.85,750.41Z"/><path class="cls-2" d="M849.32,796.41a5,5,0,0,1-2.63-1.27c-1.91-.55-2.31-1.73-2.31-2.64a2.93,2.93,0,0,1,.08-.69,168.43,168.43,0,0,1,4.84-21.37q-1.44-.2-2.64-.39a1.34,1.34,0,0,1-1.17-1.44,1.5,1.5,0,0,1,1.15-1.57c.45-.11,1.3-.36,2.53-.75a9.68,9.68,0,0,0,1.89-.86c2.48-7.65,4.39-12.49,5.82-14.79.93-1.48,2-2.23,3.12-2.23a9.39,9.39,0,0,1,4.14,1.46,2,2,0,0,1,1.29,1.71c0,.52-.33,1.07-1.27,1.07a3.9,3.9,0,0,1-.54-.06,2,2,0,0,0-.32-.05c-.3,0-1.15.26-2.68,2.6-1.08,1.67-2.61,5.38-4.54,11a2.44,2.44,0,0,0-.12.35l.26,0a32.23,32.23,0,0,0,5.39-.14,1.72,1.72,0,0,1,1.37.38,1.58,1.58,0,0,1,.48,1.24,1.53,1.53,0,0,1-1.4,1.54c-.52.07-2.91.27-7.33.6a96.84,96.84,0,0,0-4.9,20.08c0,.26,0,.52,0,.73a1.72,1.72,0,0,0,.06.54c.32-.12,1.47-.81,5.14-4.34a2.16,2.16,0,0,1,1.5-.73,1.12,1.12,0,0,1,1.15.84,1.75,1.75,0,0,1-.42,1.5,54.91,54.91,0,0,1-5.57,6.38A3.71,3.71,0,0,1,849.32,796.41ZM860,749.63c-.69,0-1.39.56-2.08,1.66-1.37,2.21-3.31,7.17-5.76,14.73l-.07.22-.19.12a11.9,11.9,0,0,1-2.35,1.1c-1.28.4-2.13.65-2.61.77-.13,0-.23.06-.23.38s0,.21.14.22c1,.17,2.1.33,3.32.49l.7.09-.19.69a169.44,169.44,0,0,0-5,21.93,2,2,0,0,0-.07.47c0,.5.18,1.13,1.52,1.48l.22.11c1.29,1,1.82,1.09,2,1.09s.62-.09,1.49-.91a53.27,53.27,0,0,0,5.44-6.23.4.4,0,1,0-.39,0c-4.9,4.72-5.67,4.72-6.09,4.72s-1.2-.23-1.2-1.79c0-.24,0-.52,0-.84a99.26,99.26,0,0,1,5.09-20.75l.13-.38.41,0c4.58-.35,7.15-.55,7.62-.62s.37-.2.37-.33a.6.6,0,0,0-.07-.34.66.66,0,0,0-.44,0,33.2,33.2,0,0,1-5.58.13c-.53,0-1.19-.11-1.42-.64-.12-.25-.08-.59.2-1.36,2-5.81,3.52-9.51,4.67-11.28,1.4-2.16,2.58-3.16,3.71-3.16a3.9,3.9,0,0,1,.54.06,1.52,1.52,0,0,0,.32,0,1.66,1.66,0,0,0-.6-.47h0A8.38,8.38,0,0,0,860,749.63Z"/><path class="cls-2" d="M885,771.56a108.57,108.57,0,0,0-4.4,14.84,20.31,20.31,0,0,0,1.37-1.5,15.5,15.5,0,0,1,1-1.17,1.35,1.35,0,0,1,1.05-.63.46.46,0,0,1,.51.52,1.4,1.4,0,0,1-.27.73,28,28,0,0,0-4.34,9.74c-.2.93-.52,1.39-.93,1.39a5.25,5.25,0,0,1-2.19-1.11c-.62-.42-1-.76-1.07-1a3.09,3.09,0,0,1,0-1.53,79,79,0,0,1,3.64-14.63A82.22,82.22,0,0,1,871.2,788a48.24,48.24,0,0,1-6.55,6.59,4.56,4.56,0,0,1-2.22,1,3.82,3.82,0,0,1-1.91-1,3.43,3.43,0,0,1-1.84-3.05,7.23,7.23,0,0,1,.07-.87q.63-5.13,4.51-11.94a48,48,0,0,1,8.91-11.5,4.46,4.46,0,0,1,2.91-1.49q1.26.07,4.75,3.3a.79.79,0,0,1,.32.58c0,.37-.25.56-.73.56a1.46,1.46,0,0,1-.52-.1c-1.64-.7-3-.67-3.95.06q-3.27,2.4-7.22,8.43-4.58,6.93-5.51,12.48a3.64,3.64,0,0,0,0,.45q0,.87.69.87a4.44,4.44,0,0,0,2.81-1.63,92.63,92.63,0,0,0,8.32-9.5,47.25,47.25,0,0,0,5.82-9c.63-1.47,1-2.51,1.22-3.12.3-1,.62-1.56,1-1.56a6.74,6.74,0,0,1,2.43,1.43c.53.39.82.75.86,1.07A3.29,3.29,0,0,1,885,771.56Z"/><path class="cls-2" d="M862.43,796.2a4.18,4.18,0,0,1-2.29-1.14,4,4,0,0,1-2.07-3.53,7,7,0,0,1,.08-1c.42-3.47,2-7.57,4.58-12.16a48.86,48.86,0,0,1,9-11.64,5,5,0,0,1,3.35-1.65c.7,0,1.9.46,5.15,3.45a2,2,0,0,1,.25.28c.27-.89.69-1.86,1.52-1.86.38,0,1,.19,2.79,1.54a2.38,2.38,0,0,1,1.11,1.48,3.85,3.85,0,0,1-.34,1.76,120.77,120.77,0,0,0-3.88,12.5,12.61,12.61,0,0,1,.88-1,1.88,1.88,0,0,1,1.49-.81,1.06,1.06,0,0,1,1.13,1.13,2,2,0,0,1-.38,1.07,27.84,27.84,0,0,0-4.25,9.53c-.28,1.25-.79,1.87-1.53,1.87-.37,0-1-.14-2.54-1.22a2.91,2.91,0,0,1-1.3-1.35,3.48,3.48,0,0,1,0-1.81,94.15,94.15,0,0,1,2.3-10.53c-1.64,2.26-3.58,4.68-5.81,7.22a48.19,48.19,0,0,1-6.66,6.68A5,5,0,0,1,862.43,796.2ZM875,766.34a4,4,0,0,0-2.42,1.33,47.87,47.87,0,0,0-8.8,11.35c-2.53,4.45-4,8.39-4.43,11.71a6.3,6.3,0,0,0-.06.8,2.8,2.8,0,0,0,1.54,2.52c1.12.88,1.52.92,1.59.92a4,4,0,0,0,1.87-.9,47.78,47.78,0,0,0,6.44-6.48,83.47,83.47,0,0,0,8.16-10.74l1.09.54a79.3,79.3,0,0,0-3.61,14.51,2.61,2.61,0,0,0,0,1.18c0,.06.12.29.85.78a5.27,5.27,0,0,0,1.84,1,2.29,2.29,0,0,0,.35-.91,28.57,28.57,0,0,1,4.42-10,1,1,0,0,0,.14-.27,1.13,1.13,0,0,0-.43.36l-.09.1a10,10,0,0,0-1,1.1,19.09,19.09,0,0,1-1.42,1.54l-1.4,1.31.38-1.88a110.7,110.7,0,0,1,4.42-14.92h0a3.08,3.08,0,0,0,.29-1.15s0-.25-.63-.68a9.71,9.71,0,0,0-2-1.28,3.51,3.51,0,0,0-.45,1.09c-.2.64-.61,1.71-1.24,3.19a48.47,48.47,0,0,1-5.9,9.08,94.15,94.15,0,0,1-8.38,9.57,5,5,0,0,1-3.24,1.8,1.3,1.3,0,0,1-1.31-1.48c0-.16,0-.34,0-.54.64-3.77,2.53-8.05,5.61-12.73,2.66-4.06,5.14-7,7.36-8.58,1.17-.87,2.71-.92,4.56-.14a.74.74,0,0,0,.35,0l-.06-.07c-3-2.78-4.07-3.12-4.38-3.14Zm1.74,3.83a2.36,2.36,0,0,0-1.44.46c-2.1,1.54-4.48,4.33-7.06,8.27-3,4.53-4.82,8.65-5.42,12.24a2.16,2.16,0,0,0,0,.35.56.56,0,0,0,0,.27c.46,0,1.22-.27,2.41-1.46a94,94,0,0,0,8.28-9.45,48,48,0,0,0,5.74-8.81l.54-1.29a2.19,2.19,0,0,1-1.15-.12A5.12,5.12,0,0,0,876.75,770.17Z"/><path class="cls-2" d="M916.14,740.84a.94.94,0,0,1,.45.72c0,.44-.27.66-.8.66a1.64,1.64,0,0,1-.73-.2,6,6,0,0,0-2.39-.8c-1.46,0-3,1.41-4.79,4.23q-9.42,15.36-13.41,39.7c-.07.44-.19,1-.35,1.77.53-.56,1.32-1.46,2.36-2.71.6-.71,1-1.07,1.31-1.07.61,0,.65.36.14,1.07a26.69,26.69,0,0,0-4.4,9.95c-.25.86-.58,1.29-1,1.29a1.42,1.42,0,0,1-.73-.32c-1.18-.78-1.85-1.25-2-1.38a2.47,2.47,0,0,1-.69-1.81,6.19,6.19,0,0,1,.17-1.35q4-22.08,10.37-37.62,4.79-11.72,8.56-15.18a2.94,2.94,0,0,1,2.08-.94,4.68,4.68,0,0,1,2.43,1.18Q914.44,739.41,916.14,740.84Z"/><path class="cls-2" d="M892.56,796.06a1.93,1.93,0,0,1-1.08-.42c-1.6-1.07-1.94-1.33-2.06-1.43a3.07,3.07,0,0,1-.91-2.27,7.48,7.48,0,0,1,.19-1.48c2.67-14.68,6.17-27.37,10.4-37.72,3.25-8,6.1-13,8.72-15.41a3.52,3.52,0,0,1,2.51-1.09,5.15,5.15,0,0,1,2.78,1.3c1.15.94,2.28,1.87,3.41,2.82a1.53,1.53,0,0,1,.68,1.21,1.25,1.25,0,0,1-1.41,1.27,2.11,2.11,0,0,1-1-.29,5.47,5.47,0,0,0-2.1-.72c-1.21,0-2.68,1.36-4.26,3.94-6.17,10-10.63,23.18-13.27,39.08l.87-1c.77-.92,1.29-1.3,1.78-1.3a1,1,0,0,1,1,.51c.27.53-.08,1.13-.37,1.54a26.35,26.35,0,0,0-4.3,9.72C894,794.76,893.61,796.06,892.56,796.06Zm17.68-58.6a2.43,2.43,0,0,0-1.59.77c-2.45,2.25-5.28,7.28-8.41,15-4.2,10.27-7.67,22.89-10.34,37.5a6.07,6.07,0,0,0-.16,1.24,1.84,1.84,0,0,0,.51,1.37s.36.27,1.92,1.31a1.25,1.25,0,0,0,.39.21,2.09,2.09,0,0,0,.38-.84,27,27,0,0,1,3.89-9.25c-1,1.2-1.75,2.06-2.27,2.6l-1.5,1.57.46-2.12c.16-.73.27-1.31.34-1.74,2.66-16.23,7.2-29.67,13.5-39.92,1.87-3,3.61-4.53,5.31-4.53a6.68,6.68,0,0,1,2.67.87.8.8,0,0,0,.66.11,1,1,0,0,0-.24-.26h0c-1.13-.95-2.26-1.88-3.39-2.81a4.08,4.08,0,0,0-2.06-1Z"/><path class="cls-2" d="M908.3,790.87a27.54,27.54,0,0,0-1.21,4.64c-.19.47-.58.56-1.18.28-1.74-.76-2.6-1.67-2.6-2.74a8.2,8.2,0,0,1,.24-1.45c.16-.81.32-1.61.49-2.4s.53-1.07,1-1.07a1.23,1.23,0,0,1,.52.14c2,.78,3,1.42,3,1.9A1.64,1.64,0,0,1,908.3,790.87Zm13.87-40.53q-6.63,11.37-11.79,29.54a3.21,3.21,0,0,0,.07,2.56.62.62,0,0,1,.1.31c0,.26-.17.39-.52.39a3.4,3.4,0,0,1-1.8-.77c-1-.74-1.52-1.42-1.52-2a5.92,5.92,0,0,1,.17-1.25,174.71,174.71,0,0,1,5.75-19,103.48,103.48,0,0,1,4.27-10.85c.67-1.25,1.28-1.87,1.84-1.87a5.91,5.91,0,0,1,1,.24c2.36.65,3.54,1.3,3.54,1.94C923.28,750,922.91,750.22,922.17,750.34Z"/><path class="cls-2" d="M906.5,796.56a2.08,2.08,0,0,1-.85-.21c-2-.86-3-2-3-3.3a7.85,7.85,0,0,1,.26-1.59c.16-.79.32-1.59.49-2.38.37-1.3,1.06-1.56,1.57-1.56a1.71,1.71,0,0,1,.79.2c2.38.94,3.32,1.63,3.32,2.45a2.13,2.13,0,0,1-.26,1,27.38,27.38,0,0,0-1.17,4.51l0,.1a1.27,1.27,0,0,1-.7.74A1.39,1.39,0,0,1,906.5,796.56ZM905,788.74c-.12,0-.27.25-.38.64-.15.73-.32,1.53-.48,2.34a7.45,7.45,0,0,0-.23,1.33c0,.8.75,1.53,2.24,2.18a.72.72,0,0,0,.35.1,26.15,26.15,0,0,1,1.23-4.7v0a1.08,1.08,0,0,0,.14-.43,7.72,7.72,0,0,0-2.59-1.33A.75.75,0,0,0,905,788.74Zm5-5a3.88,3.88,0,0,1-2.15-.88c-1.21-.87-1.79-1.7-1.79-2.54a6.54,6.54,0,0,1,.19-1.38,175.56,175.56,0,0,1,5.78-19,98.86,98.86,0,0,1,4.3-10.94c.8-1.5,1.56-2.19,2.38-2.19a4.69,4.69,0,0,1,1.17.26c2.79.77,4,1.53,4,2.53,0,.47-.24,1.06-1.33,1.32-4.31,7.47-8.21,17.28-11.59,29.16a2.69,2.69,0,0,0,0,2.09,1.21,1.21,0,0,1,.19.61A1,1,0,0,1,910,783.75ZM918.72,748s-.46,0-1.28,1.55a102.1,102.1,0,0,0-4.23,10.77,176.38,176.38,0,0,0-5.73,18.9,5.38,5.38,0,0,0-.16,1.11c0,.23.16.74,1.27,1.55a3.75,3.75,0,0,0,1.21.62,4,4,0,0,1,0-2.8c3.44-12.1,7.43-22.08,11.85-29.67l.15-.25.28,0c.48-.07.6-.18.61-.2h0s-.31-.54-3.1-1.31A8.51,8.51,0,0,0,918.72,748Z"/><path class="cls-3" d="M540,1044.25A504.38,504.38,0,0,1,343.72,75.38a504.38,504.38,0,0,1,392.56,929.24A501,501,0,0,1,540,1044.25Zm0-1001.5C265.82,42.75,42.75,265.81,42.75,540S265.82,1037.25,540,1037.25,1037.25,814.18,1037.25,540,814.18,42.75,540,42.75Z"/></svg>